<svg xmlns="http://www.w3.org/2000/svg" width="400" height="180">
  <rect width="100%" height="100%" fill="#303446" rx="6"/>
  <text x="45" y="18" fill="#c6d0f5" font-size="13" font-weight="600" font-family="system-ui, -apple-system, sans-serif">Cumulative papers read</text>
  <polygon points="45,150 45.0,90.0 54.2,90.0 63.4,90.0 72.6,90.0 81.8,66.0 90.9,54.0 100.1,42.0 109.3,42.0 118.5,42.0 127.7,42.0 136.9,42.0 146.1,30.0 155.3,30.0 164.5,30.0 173.6,30.0 182.8,30.0 192.0,30.0 201.2,30.0 210.4,30.0 219.6,30.0 228.8,30.0 238.0,30.0 247.2,30.0 256.4,30.0 265.5,30.0 274.7,30.0 283.9,30.0 293.1,30.0 302.3,30.0 311.5,30.0 320.7,30.0 329.9,30.0 339.1,30.0 348.2,30.0 357.4,30.0 366.6,30.0 375.8,30.0 385.0,30.0 385,150" fill="#8caaee" opacity="0.3"/>
  <polyline points="45.0,90.0 54.2,90.0 63.4,90.0 72.6,90.0 81.8,66.0 90.9,54.0 100.1,42.0 109.3,42.0 118.5,42.0 127.7,42.0 136.9,42.0 146.1,30.0 155.3,30.0 164.5,30.0 173.6,30.0 182.8,30.0 192.0,30.0 201.2,30.0 210.4,30.0 219.6,30.0 228.8,30.0 238.0,30.0 247.2,30.0 256.4,30.0 265.5,30.0 274.7,30.0 283.9,30.0 293.1,30.0 302.3,30.0 311.5,30.0 320.7,30.0 329.9,30.0 339.1,30.0 348.2,30.0 357.4,30.0 366.6,30.0 375.8,30.0 385.0,30.0" fill="none" stroke="#a6d189" stroke-width="2"/>
  <text x="45" y="168" fill="#a5adce" font-size="10" font-family="system-ui, -apple-system, sans-serif">Feb 2026</text>
  <text x="385" y="168" text-anchor="end" fill="#a5adce" font-size="10" font-family="system-ui, -apple-system, sans-serif">Mar 2026</text>
  <text x="40" y="150" text-anchor="end" fill="#a5adce" font-size="10" font-family="system-ui, -apple-system, sans-serif">0</text>
  <text x="40" y="35" text-anchor="end" fill="#a5adce" font-size="10" font-family="system-ui, -apple-system, sans-serif">10</text>
</svg>