<svg xmlns="http://www.w3.org/2000/svg" width="400" height="180">
  <rect width="100%" height="100%" fill="#303446" rx="6"/>
  <text x="45" y="18" fill="#c6d0f5" font-size="13" font-weight="600" font-family="system-ui, -apple-system, sans-serif">Cumulative papers read</text>
  <polygon points="45,150 45.0,90.0 52.2,90.0 59.5,90.0 66.7,90.0 73.9,66.0 81.2,54.0 88.4,42.0 95.6,42.0 102.9,42.0 110.1,42.0 117.3,42.0 124.6,30.0 131.8,30.0 139.0,30.0 146.3,30.0 153.5,30.0 160.7,30.0 168.0,30.0 175.2,30.0 182.4,30.0 189.7,30.0 196.9,30.0 204.1,30.0 211.4,30.0 218.6,30.0 225.9,30.0 233.1,30.0 240.3,30.0 247.6,30.0 254.8,30.0 262.0,30.0 269.3,30.0 276.5,30.0 283.7,30.0 291.0,30.0 298.2,30.0 305.4,30.0 312.7,30.0 319.9,30.0 327.1,30.0 334.4,30.0 341.6,30.0 348.8,30.0 356.1,30.0 363.3,30.0 370.5,30.0 377.8,30.0 385.0,30.0 385,150" fill="#8caaee" opacity="0.3"/>
  <polyline points="45.0,90.0 52.2,90.0 59.5,90.0 66.7,90.0 73.9,66.0 81.2,54.0 88.4,42.0 95.6,42.0 102.9,42.0 110.1,42.0 117.3,42.0 124.6,30.0 131.8,30.0 139.0,30.0 146.3,30.0 153.5,30.0 160.7,30.0 168.0,30.0 175.2,30.0 182.4,30.0 189.7,30.0 196.9,30.0 204.1,30.0 211.4,30.0 218.6,30.0 225.9,30.0 233.1,30.0 240.3,30.0 247.6,30.0 254.8,30.0 262.0,30.0 269.3,30.0 276.5,30.0 283.7,30.0 291.0,30.0 298.2,30.0 305.4,30.0 312.7,30.0 319.9,30.0 327.1,30.0 334.4,30.0 341.6,30.0 348.8,30.0 356.1,30.0 363.3,30.0 370.5,30.0 377.8,30.0 385.0,30.0" fill="none" stroke="#a6d189" stroke-width="2"/>
  <text x="45" y="168" fill="#a5adce" font-size="10" font-family="system-ui, -apple-system, sans-serif">Feb 2026</text>
  <text x="385" y="168" text-anchor="end" fill="#a5adce" font-size="10" font-family="system-ui, -apple-system, sans-serif">Apr 2026</text>
  <text x="40" y="150" text-anchor="end" fill="#a5adce" font-size="10" font-family="system-ui, -apple-system, sans-serif">0</text>
  <text x="40" y="35" text-anchor="end" fill="#a5adce" font-size="10" font-family="system-ui, -apple-system, sans-serif">10</text>
</svg>