<svg xmlns="http://www.w3.org/2000/svg" width="400" height="180">
  <rect width="100%" height="100%" fill="#303446" rx="6"/>
  <text x="45" y="18" fill="#c6d0f5" font-size="13" font-weight="600" font-family="system-ui, -apple-system, sans-serif">Cumulative papers read</text>
  <polygon points="45,150 45.0,90.0 52.1,90.0 59.2,90.0 66.2,90.0 73.3,66.0 80.4,54.0 87.5,42.0 94.6,42.0 101.7,42.0 108.8,42.0 115.8,42.0 122.9,30.0 130.0,30.0 137.1,30.0 144.2,30.0 151.2,30.0 158.3,30.0 165.4,30.0 172.5,30.0 179.6,30.0 186.7,30.0 193.8,30.0 200.8,30.0 207.9,30.0 215.0,30.0 222.1,30.0 229.2,30.0 236.2,30.0 243.3,30.0 250.4,30.0 257.5,30.0 264.6,30.0 271.7,30.0 278.8,30.0 285.8,30.0 292.9,30.0 300.0,30.0 307.1,30.0 314.2,30.0 321.2,30.0 328.3,30.0 335.4,30.0 342.5,30.0 349.6,30.0 356.7,30.0 363.8,30.0 370.8,30.0 377.9,30.0 385.0,30.0 385,150" fill="#8caaee" opacity="0.3"/>
  <polyline points="45.0,90.0 52.1,90.0 59.2,90.0 66.2,90.0 73.3,66.0 80.4,54.0 87.5,42.0 94.6,42.0 101.7,42.0 108.8,42.0 115.8,42.0 122.9,30.0 130.0,30.0 137.1,30.0 144.2,30.0 151.2,30.0 158.3,30.0 165.4,30.0 172.5,30.0 179.6,30.0 186.7,30.0 193.8,30.0 200.8,30.0 207.9,30.0 215.0,30.0 222.1,30.0 229.2,30.0 236.2,30.0 243.3,30.0 250.4,30.0 257.5,30.0 264.6,30.0 271.7,30.0 278.8,30.0 285.8,30.0 292.9,30.0 300.0,30.0 307.1,30.0 314.2,30.0 321.2,30.0 328.3,30.0 335.4,30.0 342.5,30.0 349.6,30.0 356.7,30.0 363.8,30.0 370.8,30.0 377.9,30.0 385.0,30.0" fill="none" stroke="#a6d189" stroke-width="2"/>
  <text x="45" y="168" fill="#a5adce" font-size="10" font-family="system-ui, -apple-system, sans-serif">Feb 2026</text>
  <text x="385" y="168" text-anchor="end" fill="#a5adce" font-size="10" font-family="system-ui, -apple-system, sans-serif">Apr 2026</text>
  <text x="40" y="150" text-anchor="end" fill="#a5adce" font-size="10" font-family="system-ui, -apple-system, sans-serif">0</text>
  <text x="40" y="35" text-anchor="end" fill="#a5adce" font-size="10" font-family="system-ui, -apple-system, sans-serif">10</text>
</svg>