<svg xmlns="http://www.w3.org/2000/svg" width="400" height="180">
  <rect width="100%" height="100%" fill="#303446" rx="6"/>
  <text x="45" y="18" fill="#c6d0f5" font-size="13" font-weight="600" font-family="system-ui, -apple-system, sans-serif">Cumulative papers read</text>
  <polygon points="45,150 45.0,90.0 53.1,90.0 61.2,90.0 69.3,90.0 77.4,66.0 85.5,54.0 93.6,42.0 101.7,42.0 109.8,42.0 117.9,42.0 126.0,42.0 134.0,30.0 142.1,30.0 150.2,30.0 158.3,30.0 166.4,30.0 174.5,30.0 182.6,30.0 190.7,30.0 198.8,30.0 206.9,30.0 215.0,30.0 223.1,30.0 231.2,30.0 239.3,30.0 247.4,30.0 255.5,30.0 263.6,30.0 271.7,30.0 279.8,30.0 287.9,30.0 296.0,30.0 304.0,30.0 312.1,30.0 320.2,30.0 328.3,30.0 336.4,30.0 344.5,30.0 352.6,30.0 360.7,30.0 368.8,30.0 376.9,30.0 385.0,30.0 385,150" fill="#8caaee" opacity="0.3"/>
  <polyline points="45.0,90.0 53.1,90.0 61.2,90.0 69.3,90.0 77.4,66.0 85.5,54.0 93.6,42.0 101.7,42.0 109.8,42.0 117.9,42.0 126.0,42.0 134.0,30.0 142.1,30.0 150.2,30.0 158.3,30.0 166.4,30.0 174.5,30.0 182.6,30.0 190.7,30.0 198.8,30.0 206.9,30.0 215.0,30.0 223.1,30.0 231.2,30.0 239.3,30.0 247.4,30.0 255.5,30.0 263.6,30.0 271.7,30.0 279.8,30.0 287.9,30.0 296.0,30.0 304.0,30.0 312.1,30.0 320.2,30.0 328.3,30.0 336.4,30.0 344.5,30.0 352.6,30.0 360.7,30.0 368.8,30.0 376.9,30.0 385.0,30.0" fill="none" stroke="#a6d189" stroke-width="2"/>
  <text x="45" y="168" fill="#a5adce" font-size="10" font-family="system-ui, -apple-system, sans-serif">Feb 2026</text>
  <text x="385" y="168" text-anchor="end" fill="#a5adce" font-size="10" font-family="system-ui, -apple-system, sans-serif">Apr 2026</text>
  <text x="40" y="150" text-anchor="end" fill="#a5adce" font-size="10" font-family="system-ui, -apple-system, sans-serif">0</text>
  <text x="40" y="35" text-anchor="end" fill="#a5adce" font-size="10" font-family="system-ui, -apple-system, sans-serif">10</text>
</svg>