<svg xmlns="http://www.w3.org/2000/svg" width="400" height="180">
  <rect width="100%" height="100%" fill="#303446" rx="6"/>
  <text x="45" y="18" fill="#c6d0f5" font-size="13" font-weight="600" font-family="system-ui, -apple-system, sans-serif">Cumulative papers read</text>
  <polygon points="45,150 45.0,90.0 51.7,90.0 58.3,90.0 65.0,90.0 71.7,66.0 78.3,54.0 85.0,42.0 91.7,42.0 98.3,42.0 105.0,42.0 111.7,42.0 118.3,30.0 125.0,30.0 131.7,30.0 138.3,30.0 145.0,30.0 151.7,30.0 158.3,30.0 165.0,30.0 171.7,30.0 178.3,30.0 185.0,30.0 191.7,30.0 198.3,30.0 205.0,30.0 211.7,30.0 218.3,30.0 225.0,30.0 231.7,30.0 238.3,30.0 245.0,30.0 251.7,30.0 258.3,30.0 265.0,30.0 271.7,30.0 278.3,30.0 285.0,30.0 291.7,30.0 298.3,30.0 305.0,30.0 311.7,30.0 318.3,30.0 325.0,30.0 331.7,30.0 338.3,30.0 345.0,30.0 351.7,30.0 358.3,30.0 365.0,30.0 371.7,30.0 378.3,30.0 385.0,30.0 385,150" fill="#8caaee" opacity="0.3"/>
  <polyline points="45.0,90.0 51.7,90.0 58.3,90.0 65.0,90.0 71.7,66.0 78.3,54.0 85.0,42.0 91.7,42.0 98.3,42.0 105.0,42.0 111.7,42.0 118.3,30.0 125.0,30.0 131.7,30.0 138.3,30.0 145.0,30.0 151.7,30.0 158.3,30.0 165.0,30.0 171.7,30.0 178.3,30.0 185.0,30.0 191.7,30.0 198.3,30.0 205.0,30.0 211.7,30.0 218.3,30.0 225.0,30.0 231.7,30.0 238.3,30.0 245.0,30.0 251.7,30.0 258.3,30.0 265.0,30.0 271.7,30.0 278.3,30.0 285.0,30.0 291.7,30.0 298.3,30.0 305.0,30.0 311.7,30.0 318.3,30.0 325.0,30.0 331.7,30.0 338.3,30.0 345.0,30.0 351.7,30.0 358.3,30.0 365.0,30.0 371.7,30.0 378.3,30.0 385.0,30.0" fill="none" stroke="#a6d189" stroke-width="2"/>
  <text x="45" y="168" fill="#a5adce" font-size="10" font-family="system-ui, -apple-system, sans-serif">Feb 2026</text>
  <text x="385" y="168" text-anchor="end" fill="#a5adce" font-size="10" font-family="system-ui, -apple-system, sans-serif">Apr 2026</text>
  <text x="40" y="150" text-anchor="end" fill="#a5adce" font-size="10" font-family="system-ui, -apple-system, sans-serif">0</text>
  <text x="40" y="35" text-anchor="end" fill="#a5adce" font-size="10" font-family="system-ui, -apple-system, sans-serif">10</text>
</svg>