<svg xmlns="http://www.w3.org/2000/svg" width="400" height="180">
  <rect width="100%" height="100%" fill="#303446" rx="6"/>
  <text x="45" y="18" fill="#c6d0f5" font-size="13" font-weight="600" font-family="system-ui, -apple-system, sans-serif">Cumulative papers read</text>
  <polygon points="45,150 45.0,90.0 51.1,90.0 57.1,90.0 63.2,90.0 69.3,66.0 75.4,54.0 81.4,42.0 87.5,42.0 93.6,42.0 99.6,42.0 105.7,42.0 111.8,30.0 117.9,30.0 123.9,30.0 130.0,30.0 136.1,30.0 142.1,30.0 148.2,30.0 154.3,30.0 160.4,30.0 166.4,30.0 172.5,30.0 178.6,30.0 184.6,30.0 190.7,30.0 196.8,30.0 202.9,30.0 208.9,30.0 215.0,30.0 221.1,30.0 227.1,30.0 233.2,30.0 239.3,30.0 245.4,30.0 251.4,30.0 257.5,30.0 263.6,30.0 269.6,30.0 275.7,30.0 281.8,30.0 287.9,30.0 293.9,30.0 300.0,30.0 306.1,30.0 312.1,30.0 318.2,30.0 324.3,30.0 330.4,30.0 336.4,30.0 342.5,30.0 348.6,30.0 354.6,30.0 360.7,30.0 366.8,30.0 372.9,30.0 378.9,30.0 385.0,30.0 385,150" fill="#8caaee" opacity="0.3"/>
  <polyline points="45.0,90.0 51.1,90.0 57.1,90.0 63.2,90.0 69.3,66.0 75.4,54.0 81.4,42.0 87.5,42.0 93.6,42.0 99.6,42.0 105.7,42.0 111.8,30.0 117.9,30.0 123.9,30.0 130.0,30.0 136.1,30.0 142.1,30.0 148.2,30.0 154.3,30.0 160.4,30.0 166.4,30.0 172.5,30.0 178.6,30.0 184.6,30.0 190.7,30.0 196.8,30.0 202.9,30.0 208.9,30.0 215.0,30.0 221.1,30.0 227.1,30.0 233.2,30.0 239.3,30.0 245.4,30.0 251.4,30.0 257.5,30.0 263.6,30.0 269.6,30.0 275.7,30.0 281.8,30.0 287.9,30.0 293.9,30.0 300.0,30.0 306.1,30.0 312.1,30.0 318.2,30.0 324.3,30.0 330.4,30.0 336.4,30.0 342.5,30.0 348.6,30.0 354.6,30.0 360.7,30.0 366.8,30.0 372.9,30.0 378.9,30.0 385.0,30.0" fill="none" stroke="#a6d189" stroke-width="2"/>
  <text x="45" y="168" fill="#a5adce" font-size="10" font-family="system-ui, -apple-system, sans-serif">Feb 2026</text>
  <text x="385" y="168" text-anchor="end" fill="#a5adce" font-size="10" font-family="system-ui, -apple-system, sans-serif">Apr 2026</text>
  <text x="40" y="150" text-anchor="end" fill="#a5adce" font-size="10" font-family="system-ui, -apple-system, sans-serif">0</text>
  <text x="40" y="35" text-anchor="end" fill="#a5adce" font-size="10" font-family="system-ui, -apple-system, sans-serif">10</text>
</svg>