<svg xmlns="http://www.w3.org/2000/svg" width="400" height="180">
  <rect width="100%" height="100%" fill="#303446" rx="6"/>
  <text x="45" y="18" fill="#c6d0f5" font-size="13" font-weight="600" font-family="system-ui, -apple-system, sans-serif">Cumulative papers read</text>
  <polygon points="45,150 45.0,90.0 56.3,90.0 67.7,90.0 79.0,90.0 90.3,66.0 101.7,54.0 113.0,42.0 124.3,42.0 135.7,42.0 147.0,42.0 158.3,42.0 169.7,30.0 181.0,30.0 192.3,30.0 203.7,30.0 215.0,30.0 226.3,30.0 237.7,30.0 249.0,30.0 260.3,30.0 271.7,30.0 283.0,30.0 294.3,30.0 305.7,30.0 317.0,30.0 328.3,30.0 339.7,30.0 351.0,30.0 362.3,30.0 373.7,30.0 385.0,30.0 385,150" fill="#8caaee" opacity="0.3"/>
  <polyline points="45.0,90.0 56.3,90.0 67.7,90.0 79.0,90.0 90.3,66.0 101.7,54.0 113.0,42.0 124.3,42.0 135.7,42.0 147.0,42.0 158.3,42.0 169.7,30.0 181.0,30.0 192.3,30.0 203.7,30.0 215.0,30.0 226.3,30.0 237.7,30.0 249.0,30.0 260.3,30.0 271.7,30.0 283.0,30.0 294.3,30.0 305.7,30.0 317.0,30.0 328.3,30.0 339.7,30.0 351.0,30.0 362.3,30.0 373.7,30.0 385.0,30.0" fill="none" stroke="#a6d189" stroke-width="2"/>
  <text x="45" y="168" fill="#a5adce" font-size="10" font-family="system-ui, -apple-system, sans-serif">Feb 2026</text>
  <text x="385" y="168" text-anchor="end" fill="#a5adce" font-size="10" font-family="system-ui, -apple-system, sans-serif">Mar 2026</text>
  <text x="40" y="150" text-anchor="end" fill="#a5adce" font-size="10" font-family="system-ui, -apple-system, sans-serif">0</text>
  <text x="40" y="35" text-anchor="end" fill="#a5adce" font-size="10" font-family="system-ui, -apple-system, sans-serif">10</text>
</svg>