<svg xmlns="http://www.w3.org/2000/svg" width="400" height="180">
  <rect width="100%" height="100%" fill="#303446" rx="6"/>
  <text x="45" y="18" fill="#c6d0f5" font-size="13" font-weight="600" font-family="system-ui, -apple-system, sans-serif">Cumulative papers read</text>
  <polygon points="45,150 45.0,90.0 52.6,90.0 60.1,90.0 67.7,90.0 75.2,66.0 82.8,54.0 90.3,42.0 97.9,42.0 105.4,42.0 113.0,42.0 120.6,42.0 128.1,30.0 135.7,30.0 143.2,30.0 150.8,30.0 158.3,30.0 165.9,30.0 173.4,30.0 181.0,30.0 188.6,30.0 196.1,30.0 203.7,30.0 211.2,30.0 218.8,30.0 226.3,30.0 233.9,30.0 241.4,30.0 249.0,30.0 256.6,30.0 264.1,30.0 271.7,30.0 279.2,30.0 286.8,30.0 294.3,30.0 301.9,30.0 309.4,30.0 317.0,30.0 324.6,30.0 332.1,30.0 339.7,30.0 347.2,30.0 354.8,30.0 362.3,30.0 369.9,30.0 377.4,30.0 385.0,30.0 385,150" fill="#8caaee" opacity="0.3"/>
  <polyline points="45.0,90.0 52.6,90.0 60.1,90.0 67.7,90.0 75.2,66.0 82.8,54.0 90.3,42.0 97.9,42.0 105.4,42.0 113.0,42.0 120.6,42.0 128.1,30.0 135.7,30.0 143.2,30.0 150.8,30.0 158.3,30.0 165.9,30.0 173.4,30.0 181.0,30.0 188.6,30.0 196.1,30.0 203.7,30.0 211.2,30.0 218.8,30.0 226.3,30.0 233.9,30.0 241.4,30.0 249.0,30.0 256.6,30.0 264.1,30.0 271.7,30.0 279.2,30.0 286.8,30.0 294.3,30.0 301.9,30.0 309.4,30.0 317.0,30.0 324.6,30.0 332.1,30.0 339.7,30.0 347.2,30.0 354.8,30.0 362.3,30.0 369.9,30.0 377.4,30.0 385.0,30.0" fill="none" stroke="#a6d189" stroke-width="2"/>
  <text x="45" y="168" fill="#a5adce" font-size="10" font-family="system-ui, -apple-system, sans-serif">Feb 2026</text>
  <text x="385" y="168" text-anchor="end" fill="#a5adce" font-size="10" font-family="system-ui, -apple-system, sans-serif">Apr 2026</text>
  <text x="40" y="150" text-anchor="end" fill="#a5adce" font-size="10" font-family="system-ui, -apple-system, sans-serif">0</text>
  <text x="40" y="35" text-anchor="end" fill="#a5adce" font-size="10" font-family="system-ui, -apple-system, sans-serif">10</text>
</svg>