<svg xmlns="http://www.w3.org/2000/svg" width="400" height="180">
  <rect width="100%" height="100%" fill="#303446" rx="6"/>
  <text x="45" y="18" fill="#c6d0f5" font-size="13" font-weight="600" font-family="system-ui, -apple-system, sans-serif">Cumulative papers read</text>
  <polygon points="45,150 45.0,90.0 51.9,90.0 58.9,90.0 65.8,90.0 72.8,66.0 79.7,54.0 86.6,42.0 93.6,42.0 100.5,42.0 107.4,42.0 114.4,42.0 121.3,30.0 128.3,30.0 135.2,30.0 142.1,30.0 149.1,30.0 156.0,30.0 163.0,30.0 169.9,30.0 176.8,30.0 183.8,30.0 190.7,30.0 197.7,30.0 204.6,30.0 211.5,30.0 218.5,30.0 225.4,30.0 232.3,30.0 239.3,30.0 246.2,30.0 253.2,30.0 260.1,30.0 267.0,30.0 274.0,30.0 280.9,30.0 287.9,30.0 294.8,30.0 301.7,30.0 308.7,30.0 315.6,30.0 322.6,30.0 329.5,30.0 336.4,30.0 343.4,30.0 350.3,30.0 357.2,30.0 364.2,30.0 371.1,30.0 378.1,30.0 385.0,30.0 385,150" fill="#8caaee" opacity="0.3"/>
  <polyline points="45.0,90.0 51.9,90.0 58.9,90.0 65.8,90.0 72.8,66.0 79.7,54.0 86.6,42.0 93.6,42.0 100.5,42.0 107.4,42.0 114.4,42.0 121.3,30.0 128.3,30.0 135.2,30.0 142.1,30.0 149.1,30.0 156.0,30.0 163.0,30.0 169.9,30.0 176.8,30.0 183.8,30.0 190.7,30.0 197.7,30.0 204.6,30.0 211.5,30.0 218.5,30.0 225.4,30.0 232.3,30.0 239.3,30.0 246.2,30.0 253.2,30.0 260.1,30.0 267.0,30.0 274.0,30.0 280.9,30.0 287.9,30.0 294.8,30.0 301.7,30.0 308.7,30.0 315.6,30.0 322.6,30.0 329.5,30.0 336.4,30.0 343.4,30.0 350.3,30.0 357.2,30.0 364.2,30.0 371.1,30.0 378.1,30.0 385.0,30.0" fill="none" stroke="#a6d189" stroke-width="2"/>
  <text x="45" y="168" fill="#a5adce" font-size="10" font-family="system-ui, -apple-system, sans-serif">Feb 2026</text>
  <text x="385" y="168" text-anchor="end" fill="#a5adce" font-size="10" font-family="system-ui, -apple-system, sans-serif">Apr 2026</text>
  <text x="40" y="150" text-anchor="end" fill="#a5adce" font-size="10" font-family="system-ui, -apple-system, sans-serif">0</text>
  <text x="40" y="35" text-anchor="end" fill="#a5adce" font-size="10" font-family="system-ui, -apple-system, sans-serif">10</text>
</svg>