<svg xmlns="http://www.w3.org/2000/svg" width="400" height="180">
  <rect width="100%" height="100%" fill="#303446" rx="6"/>
  <text x="45" y="18" fill="#c6d0f5" font-size="13" font-weight="600" font-family="system-ui, -apple-system, sans-serif">Cumulative papers read</text>
  <polygon points="45,150 45.0,90.0 55.3,90.0 65.6,90.0 75.9,90.0 86.2,66.0 96.5,54.0 106.8,42.0 117.1,42.0 127.4,42.0 137.7,42.0 148.0,42.0 158.3,30.0 168.6,30.0 178.9,30.0 189.2,30.0 199.5,30.0 209.8,30.0 220.2,30.0 230.5,30.0 240.8,30.0 251.1,30.0 261.4,30.0 271.7,30.0 282.0,30.0 292.3,30.0 302.6,30.0 312.9,30.0 323.2,30.0 333.5,30.0 343.8,30.0 354.1,30.0 364.4,30.0 374.7,30.0 385.0,30.0 385,150" fill="#8caaee" opacity="0.3"/>
  <polyline points="45.0,90.0 55.3,90.0 65.6,90.0 75.9,90.0 86.2,66.0 96.5,54.0 106.8,42.0 117.1,42.0 127.4,42.0 137.7,42.0 148.0,42.0 158.3,30.0 168.6,30.0 178.9,30.0 189.2,30.0 199.5,30.0 209.8,30.0 220.2,30.0 230.5,30.0 240.8,30.0 251.1,30.0 261.4,30.0 271.7,30.0 282.0,30.0 292.3,30.0 302.6,30.0 312.9,30.0 323.2,30.0 333.5,30.0 343.8,30.0 354.1,30.0 364.4,30.0 374.7,30.0 385.0,30.0" fill="none" stroke="#a6d189" stroke-width="2"/>
  <text x="45" y="168" fill="#a5adce" font-size="10" font-family="system-ui, -apple-system, sans-serif">Feb 2026</text>
  <text x="385" y="168" text-anchor="end" fill="#a5adce" font-size="10" font-family="system-ui, -apple-system, sans-serif">Mar 2026</text>
  <text x="40" y="150" text-anchor="end" fill="#a5adce" font-size="10" font-family="system-ui, -apple-system, sans-serif">0</text>
  <text x="40" y="35" text-anchor="end" fill="#a5adce" font-size="10" font-family="system-ui, -apple-system, sans-serif">10</text>
</svg>