<svg xmlns="http://www.w3.org/2000/svg" width="400" height="180">
  <rect width="100%" height="100%" fill="#303446" rx="6"/>
  <text x="45" y="18" fill="#c6d0f5" font-size="13" font-weight="600" font-family="system-ui, -apple-system, sans-serif">Cumulative papers read</text>
  <polygon points="45,150 45.0,90.0 52.7,90.0 60.5,90.0 68.2,90.0 75.9,66.0 83.6,54.0 91.4,42.0 99.1,42.0 106.8,42.0 114.5,42.0 122.3,42.0 130.0,30.0 137.7,30.0 145.5,30.0 153.2,30.0 160.9,30.0 168.6,30.0 176.4,30.0 184.1,30.0 191.8,30.0 199.5,30.0 207.3,30.0 215.0,30.0 222.7,30.0 230.5,30.0 238.2,30.0 245.9,30.0 253.6,30.0 261.4,30.0 269.1,30.0 276.8,30.0 284.5,30.0 292.3,30.0 300.0,30.0 307.7,30.0 315.5,30.0 323.2,30.0 330.9,30.0 338.6,30.0 346.4,30.0 354.1,30.0 361.8,30.0 369.5,30.0 377.3,30.0 385.0,30.0 385,150" fill="#8caaee" opacity="0.3"/>
  <polyline points="45.0,90.0 52.7,90.0 60.5,90.0 68.2,90.0 75.9,66.0 83.6,54.0 91.4,42.0 99.1,42.0 106.8,42.0 114.5,42.0 122.3,42.0 130.0,30.0 137.7,30.0 145.5,30.0 153.2,30.0 160.9,30.0 168.6,30.0 176.4,30.0 184.1,30.0 191.8,30.0 199.5,30.0 207.3,30.0 215.0,30.0 222.7,30.0 230.5,30.0 238.2,30.0 245.9,30.0 253.6,30.0 261.4,30.0 269.1,30.0 276.8,30.0 284.5,30.0 292.3,30.0 300.0,30.0 307.7,30.0 315.5,30.0 323.2,30.0 330.9,30.0 338.6,30.0 346.4,30.0 354.1,30.0 361.8,30.0 369.5,30.0 377.3,30.0 385.0,30.0" fill="none" stroke="#a6d189" stroke-width="2"/>
  <text x="45" y="168" fill="#a5adce" font-size="10" font-family="system-ui, -apple-system, sans-serif">Feb 2026</text>
  <text x="385" y="168" text-anchor="end" fill="#a5adce" font-size="10" font-family="system-ui, -apple-system, sans-serif">Apr 2026</text>
  <text x="40" y="150" text-anchor="end" fill="#a5adce" font-size="10" font-family="system-ui, -apple-system, sans-serif">0</text>
  <text x="40" y="35" text-anchor="end" fill="#a5adce" font-size="10" font-family="system-ui, -apple-system, sans-serif">10</text>
</svg>