<svg xmlns="http://www.w3.org/2000/svg" width="400" height="180">
  <rect width="100%" height="100%" fill="#303446" rx="6"/>
  <text x="45" y="18" fill="#c6d0f5" font-size="13" font-weight="600" font-family="system-ui, -apple-system, sans-serif">Cumulative papers read</text>
  <polygon points="45,150 45.0,90.0 58.6,90.0 72.2,90.0 85.8,90.0 99.4,66.0 113.0,54.0 126.6,42.0 140.2,42.0 153.8,42.0 167.4,42.0 181.0,42.0 194.6,30.0 208.2,30.0 221.8,30.0 235.4,30.0 249.0,30.0 262.6,30.0 276.2,30.0 289.8,30.0 303.4,30.0 317.0,30.0 330.6,30.0 344.2,30.0 357.8,30.0 371.4,30.0 385.0,30.0 385,150" fill="#8caaee" opacity="0.3"/>
  <polyline points="45.0,90.0 58.6,90.0 72.2,90.0 85.8,90.0 99.4,66.0 113.0,54.0 126.6,42.0 140.2,42.0 153.8,42.0 167.4,42.0 181.0,42.0 194.6,30.0 208.2,30.0 221.8,30.0 235.4,30.0 249.0,30.0 262.6,30.0 276.2,30.0 289.8,30.0 303.4,30.0 317.0,30.0 330.6,30.0 344.2,30.0 357.8,30.0 371.4,30.0 385.0,30.0" fill="none" stroke="#a6d189" stroke-width="2"/>
  <text x="45" y="168" fill="#a5adce" font-size="10" font-family="system-ui, -apple-system, sans-serif">Feb 2026</text>
  <text x="385" y="168" text-anchor="end" fill="#a5adce" font-size="10" font-family="system-ui, -apple-system, sans-serif">Mar 2026</text>
  <text x="40" y="150" text-anchor="end" fill="#a5adce" font-size="10" font-family="system-ui, -apple-system, sans-serif">0</text>
  <text x="40" y="35" text-anchor="end" fill="#a5adce" font-size="10" font-family="system-ui, -apple-system, sans-serif">10</text>
</svg>