<svg xmlns="http://www.w3.org/2000/svg" width="400" height="180">
  <rect width="100%" height="100%" fill="#303446" rx="6"/>
  <text x="45" y="18" fill="#c6d0f5" font-size="13" font-weight="600" font-family="system-ui, -apple-system, sans-serif">Cumulative papers read</text>
  <polygon points="45,150 45.0,90.0 51.8,90.0 58.6,90.0 65.4,90.0 72.2,66.0 79.0,54.0 85.8,42.0 92.6,42.0 99.4,42.0 106.2,42.0 113.0,42.0 119.8,30.0 126.6,30.0 133.4,30.0 140.2,30.0 147.0,30.0 153.8,30.0 160.6,30.0 167.4,30.0 174.2,30.0 181.0,30.0 187.8,30.0 194.6,30.0 201.4,30.0 208.2,30.0 215.0,30.0 221.8,30.0 228.6,30.0 235.4,30.0 242.2,30.0 249.0,30.0 255.8,30.0 262.6,30.0 269.4,30.0 276.2,30.0 283.0,30.0 289.8,30.0 296.6,30.0 303.4,30.0 310.2,30.0 317.0,30.0 323.8,30.0 330.6,30.0 337.4,30.0 344.2,30.0 351.0,30.0 357.8,30.0 364.6,30.0 371.4,30.0 378.2,30.0 385.0,30.0 385,150" fill="#8caaee" opacity="0.3"/>
  <polyline points="45.0,90.0 51.8,90.0 58.6,90.0 65.4,90.0 72.2,66.0 79.0,54.0 85.8,42.0 92.6,42.0 99.4,42.0 106.2,42.0 113.0,42.0 119.8,30.0 126.6,30.0 133.4,30.0 140.2,30.0 147.0,30.0 153.8,30.0 160.6,30.0 167.4,30.0 174.2,30.0 181.0,30.0 187.8,30.0 194.6,30.0 201.4,30.0 208.2,30.0 215.0,30.0 221.8,30.0 228.6,30.0 235.4,30.0 242.2,30.0 249.0,30.0 255.8,30.0 262.6,30.0 269.4,30.0 276.2,30.0 283.0,30.0 289.8,30.0 296.6,30.0 303.4,30.0 310.2,30.0 317.0,30.0 323.8,30.0 330.6,30.0 337.4,30.0 344.2,30.0 351.0,30.0 357.8,30.0 364.6,30.0 371.4,30.0 378.2,30.0 385.0,30.0" fill="none" stroke="#a6d189" stroke-width="2"/>
  <text x="45" y="168" fill="#a5adce" font-size="10" font-family="system-ui, -apple-system, sans-serif">Feb 2026</text>
  <text x="385" y="168" text-anchor="end" fill="#a5adce" font-size="10" font-family="system-ui, -apple-system, sans-serif">Apr 2026</text>
  <text x="40" y="150" text-anchor="end" fill="#a5adce" font-size="10" font-family="system-ui, -apple-system, sans-serif">0</text>
  <text x="40" y="35" text-anchor="end" fill="#a5adce" font-size="10" font-family="system-ui, -apple-system, sans-serif">10</text>
</svg>