<svg xmlns="http://www.w3.org/2000/svg" width="400" height="180">
  <rect width="100%" height="100%" fill="#303446" rx="6"/>
  <text x="45" y="18" fill="#c6d0f5" font-size="13" font-weight="600" font-family="system-ui, -apple-system, sans-serif">Cumulative papers read</text>
  <polygon points="45,150 45.0,90.0 51.3,90.0 57.6,90.0 63.9,90.0 70.2,66.0 76.5,54.0 82.8,42.0 89.1,42.0 95.4,42.0 101.7,42.0 108.0,42.0 114.3,30.0 120.6,30.0 126.9,30.0 133.1,30.0 139.4,30.0 145.7,30.0 152.0,30.0 158.3,30.0 164.6,30.0 170.9,30.0 177.2,30.0 183.5,30.0 189.8,30.0 196.1,30.0 202.4,30.0 208.7,30.0 215.0,30.0 221.3,30.0 227.6,30.0 233.9,30.0 240.2,30.0 246.5,30.0 252.8,30.0 259.1,30.0 265.4,30.0 271.7,30.0 278.0,30.0 284.3,30.0 290.6,30.0 296.9,30.0 303.1,30.0 309.4,30.0 315.7,30.0 322.0,30.0 328.3,30.0 334.6,30.0 340.9,30.0 347.2,30.0 353.5,30.0 359.8,30.0 366.1,30.0 372.4,30.0 378.7,30.0 385.0,30.0 385,150" fill="#8caaee" opacity="0.3"/>
  <polyline points="45.0,90.0 51.3,90.0 57.6,90.0 63.9,90.0 70.2,66.0 76.5,54.0 82.8,42.0 89.1,42.0 95.4,42.0 101.7,42.0 108.0,42.0 114.3,30.0 120.6,30.0 126.9,30.0 133.1,30.0 139.4,30.0 145.7,30.0 152.0,30.0 158.3,30.0 164.6,30.0 170.9,30.0 177.2,30.0 183.5,30.0 189.8,30.0 196.1,30.0 202.4,30.0 208.7,30.0 215.0,30.0 221.3,30.0 227.6,30.0 233.9,30.0 240.2,30.0 246.5,30.0 252.8,30.0 259.1,30.0 265.4,30.0 271.7,30.0 278.0,30.0 284.3,30.0 290.6,30.0 296.9,30.0 303.1,30.0 309.4,30.0 315.7,30.0 322.0,30.0 328.3,30.0 334.6,30.0 340.9,30.0 347.2,30.0 353.5,30.0 359.8,30.0 366.1,30.0 372.4,30.0 378.7,30.0 385.0,30.0" fill="none" stroke="#a6d189" stroke-width="2"/>
  <text x="45" y="168" fill="#a5adce" font-size="10" font-family="system-ui, -apple-system, sans-serif">Feb 2026</text>
  <text x="385" y="168" text-anchor="end" fill="#a5adce" font-size="10" font-family="system-ui, -apple-system, sans-serif">Apr 2026</text>
  <text x="40" y="150" text-anchor="end" fill="#a5adce" font-size="10" font-family="system-ui, -apple-system, sans-serif">0</text>
  <text x="40" y="35" text-anchor="end" fill="#a5adce" font-size="10" font-family="system-ui, -apple-system, sans-serif">10</text>
</svg>