<svg xmlns="http://www.w3.org/2000/svg" width="400" height="180">
  <rect width="100%" height="100%" fill="#303446" rx="6"/>
  <text x="45" y="18" fill="#c6d0f5" font-size="13" font-weight="600" font-family="system-ui, -apple-system, sans-serif">Cumulative papers read</text>
  <polygon points="45,150 45.0,90.0 58.1,90.0 71.2,90.0 84.2,90.0 97.3,66.0 110.4,54.0 123.5,42.0 136.5,42.0 149.6,42.0 162.7,42.0 175.8,42.0 188.8,30.0 201.9,30.0 215.0,30.0 228.1,30.0 241.2,30.0 254.2,30.0 267.3,30.0 280.4,30.0 293.5,30.0 306.5,30.0 319.6,30.0 332.7,30.0 345.8,30.0 358.8,30.0 371.9,30.0 385.0,30.0 385,150" fill="#8caaee" opacity="0.3"/>
  <polyline points="45.0,90.0 58.1,90.0 71.2,90.0 84.2,90.0 97.3,66.0 110.4,54.0 123.5,42.0 136.5,42.0 149.6,42.0 162.7,42.0 175.8,42.0 188.8,30.0 201.9,30.0 215.0,30.0 228.1,30.0 241.2,30.0 254.2,30.0 267.3,30.0 280.4,30.0 293.5,30.0 306.5,30.0 319.6,30.0 332.7,30.0 345.8,30.0 358.8,30.0 371.9,30.0 385.0,30.0" fill="none" stroke="#a6d189" stroke-width="2"/>
  <text x="45" y="168" fill="#a5adce" font-size="10" font-family="system-ui, -apple-system, sans-serif">Feb 2026</text>
  <text x="385" y="168" text-anchor="end" fill="#a5adce" font-size="10" font-family="system-ui, -apple-system, sans-serif">Mar 2026</text>
  <text x="40" y="150" text-anchor="end" fill="#a5adce" font-size="10" font-family="system-ui, -apple-system, sans-serif">0</text>
  <text x="40" y="35" text-anchor="end" fill="#a5adce" font-size="10" font-family="system-ui, -apple-system, sans-serif">10</text>
</svg>