<svg xmlns="http://www.w3.org/2000/svg" width="400" height="180">
  <rect width="100%" height="100%" fill="#303446" rx="6"/>
  <text x="45" y="18" fill="#c6d0f5" font-size="13" font-weight="600" font-family="system-ui, -apple-system, sans-serif">Cumulative papers read</text>
  <polygon points="45,150 45.0,90.0 66.2,90.0 87.5,90.0 108.8,90.0 130.0,66.0 151.2,54.0 172.5,42.0 193.8,42.0 215.0,42.0 236.2,42.0 257.5,42.0 278.8,30.0 300.0,30.0 321.2,30.0 342.5,30.0 363.8,30.0 385.0,30.0 385,150" fill="#8caaee" opacity="0.3"/>
  <polyline points="45.0,90.0 66.2,90.0 87.5,90.0 108.8,90.0 130.0,66.0 151.2,54.0 172.5,42.0 193.8,42.0 215.0,42.0 236.2,42.0 257.5,42.0 278.8,30.0 300.0,30.0 321.2,30.0 342.5,30.0 363.8,30.0 385.0,30.0" fill="none" stroke="#a6d189" stroke-width="2"/>
  <text x="45" y="168" fill="#a5adce" font-size="10" font-family="system-ui, -apple-system, sans-serif">Feb 2026</text>
  <text x="385" y="168" text-anchor="end" fill="#a5adce" font-size="10" font-family="system-ui, -apple-system, sans-serif">Mar 2026</text>
  <text x="40" y="150" text-anchor="end" fill="#a5adce" font-size="10" font-family="system-ui, -apple-system, sans-serif">0</text>
  <text x="40" y="35" text-anchor="end" fill="#a5adce" font-size="10" font-family="system-ui, -apple-system, sans-serif">10</text>
</svg>