<svg xmlns="http://www.w3.org/2000/svg" width="400" height="180">
  <rect width="100%" height="100%" fill="#303446" rx="6"/>
  <text x="45" y="18" fill="#c6d0f5" font-size="13" font-weight="600" font-family="system-ui, -apple-system, sans-serif">Cumulative papers read</text>
  <polygon points="45,150 45.0,90.0 51.4,90.0 57.8,90.0 64.2,90.0 70.7,66.0 77.1,54.0 83.5,42.0 89.9,42.0 96.3,42.0 102.7,42.0 109.2,42.0 115.6,30.0 122.0,30.0 128.4,30.0 134.8,30.0 141.2,30.0 147.6,30.0 154.1,30.0 160.5,30.0 166.9,30.0 173.3,30.0 179.7,30.0 186.1,30.0 192.5,30.0 199.0,30.0 205.4,30.0 211.8,30.0 218.2,30.0 224.6,30.0 231.0,30.0 237.5,30.0 243.9,30.0 250.3,30.0 256.7,30.0 263.1,30.0 269.5,30.0 275.9,30.0 282.4,30.0 288.8,30.0 295.2,30.0 301.6,30.0 308.0,30.0 314.4,30.0 320.8,30.0 327.3,30.0 333.7,30.0 340.1,30.0 346.5,30.0 352.9,30.0 359.3,30.0 365.8,30.0 372.2,30.0 378.6,30.0 385.0,30.0 385,150" fill="#8caaee" opacity="0.3"/>
  <polyline points="45.0,90.0 51.4,90.0 57.8,90.0 64.2,90.0 70.7,66.0 77.1,54.0 83.5,42.0 89.9,42.0 96.3,42.0 102.7,42.0 109.2,42.0 115.6,30.0 122.0,30.0 128.4,30.0 134.8,30.0 141.2,30.0 147.6,30.0 154.1,30.0 160.5,30.0 166.9,30.0 173.3,30.0 179.7,30.0 186.1,30.0 192.5,30.0 199.0,30.0 205.4,30.0 211.8,30.0 218.2,30.0 224.6,30.0 231.0,30.0 237.5,30.0 243.9,30.0 250.3,30.0 256.7,30.0 263.1,30.0 269.5,30.0 275.9,30.0 282.4,30.0 288.8,30.0 295.2,30.0 301.6,30.0 308.0,30.0 314.4,30.0 320.8,30.0 327.3,30.0 333.7,30.0 340.1,30.0 346.5,30.0 352.9,30.0 359.3,30.0 365.8,30.0 372.2,30.0 378.6,30.0 385.0,30.0" fill="none" stroke="#a6d189" stroke-width="2"/>
  <text x="45" y="168" fill="#a5adce" font-size="10" font-family="system-ui, -apple-system, sans-serif">Feb 2026</text>
  <text x="385" y="168" text-anchor="end" fill="#a5adce" font-size="10" font-family="system-ui, -apple-system, sans-serif">Apr 2026</text>
  <text x="40" y="150" text-anchor="end" fill="#a5adce" font-size="10" font-family="system-ui, -apple-system, sans-serif">0</text>
  <text x="40" y="35" text-anchor="end" fill="#a5adce" font-size="10" font-family="system-ui, -apple-system, sans-serif">10</text>
</svg>