<svg xmlns="http://www.w3.org/2000/svg" width="400" height="180">
  <rect width="100%" height="100%" fill="#303446" rx="6"/>
  <text x="45" y="18" fill="#c6d0f5" font-size="13" font-weight="600" font-family="system-ui, -apple-system, sans-serif">Cumulative papers read</text>
  <polygon points="45,150 45.0,90.0 59.8,90.0 74.6,90.0 89.3,90.0 104.1,66.0 118.9,54.0 133.7,42.0 148.5,42.0 163.3,42.0 178.0,42.0 192.8,42.0 207.6,30.0 222.4,30.0 237.2,30.0 252.0,30.0 266.7,30.0 281.5,30.0 296.3,30.0 311.1,30.0 325.9,30.0 340.7,30.0 355.4,30.0 370.2,30.0 385.0,30.0 385,150" fill="#8caaee" opacity="0.3"/>
  <polyline points="45.0,90.0 59.8,90.0 74.6,90.0 89.3,90.0 104.1,66.0 118.9,54.0 133.7,42.0 148.5,42.0 163.3,42.0 178.0,42.0 192.8,42.0 207.6,30.0 222.4,30.0 237.2,30.0 252.0,30.0 266.7,30.0 281.5,30.0 296.3,30.0 311.1,30.0 325.9,30.0 340.7,30.0 355.4,30.0 370.2,30.0 385.0,30.0" fill="none" stroke="#a6d189" stroke-width="2"/>
  <text x="45" y="168" fill="#a5adce" font-size="10" font-family="system-ui, -apple-system, sans-serif">Feb 2026</text>
  <text x="385" y="168" text-anchor="end" fill="#a5adce" font-size="10" font-family="system-ui, -apple-system, sans-serif">Mar 2026</text>
  <text x="40" y="150" text-anchor="end" fill="#a5adce" font-size="10" font-family="system-ui, -apple-system, sans-serif">0</text>
  <text x="40" y="35" text-anchor="end" fill="#a5adce" font-size="10" font-family="system-ui, -apple-system, sans-serif">10</text>
</svg>