<svg xmlns="http://www.w3.org/2000/svg" width="400" height="180">
  <rect width="100%" height="100%" fill="#303446" rx="6"/>
  <text x="45" y="18" fill="#c6d0f5" font-size="13" font-weight="600" font-family="system-ui, -apple-system, sans-serif">Cumulative papers read</text>
  <polygon points="45,150 45.0,90.0 51.2,90.0 57.4,90.0 63.5,90.0 69.7,66.0 75.9,54.0 82.1,42.0 88.3,42.0 94.5,42.0 100.6,42.0 106.8,42.0 113.0,30.0 119.2,30.0 125.4,30.0 131.5,30.0 137.7,30.0 143.9,30.0 150.1,30.0 156.3,30.0 162.5,30.0 168.6,30.0 174.8,30.0 181.0,30.0 187.2,30.0 193.4,30.0 199.5,30.0 205.7,30.0 211.9,30.0 218.1,30.0 224.3,30.0 230.5,30.0 236.6,30.0 242.8,30.0 249.0,30.0 255.2,30.0 261.4,30.0 267.5,30.0 273.7,30.0 279.9,30.0 286.1,30.0 292.3,30.0 298.5,30.0 304.6,30.0 310.8,30.0 317.0,30.0 323.2,30.0 329.4,30.0 335.5,30.0 341.7,30.0 347.9,30.0 354.1,30.0 360.3,30.0 366.5,30.0 372.6,30.0 378.8,30.0 385.0,30.0 385,150" fill="#8caaee" opacity="0.3"/>
  <polyline points="45.0,90.0 51.2,90.0 57.4,90.0 63.5,90.0 69.7,66.0 75.9,54.0 82.1,42.0 88.3,42.0 94.5,42.0 100.6,42.0 106.8,42.0 113.0,30.0 119.2,30.0 125.4,30.0 131.5,30.0 137.7,30.0 143.9,30.0 150.1,30.0 156.3,30.0 162.5,30.0 168.6,30.0 174.8,30.0 181.0,30.0 187.2,30.0 193.4,30.0 199.5,30.0 205.7,30.0 211.9,30.0 218.1,30.0 224.3,30.0 230.5,30.0 236.6,30.0 242.8,30.0 249.0,30.0 255.2,30.0 261.4,30.0 267.5,30.0 273.7,30.0 279.9,30.0 286.1,30.0 292.3,30.0 298.5,30.0 304.6,30.0 310.8,30.0 317.0,30.0 323.2,30.0 329.4,30.0 335.5,30.0 341.7,30.0 347.9,30.0 354.1,30.0 360.3,30.0 366.5,30.0 372.6,30.0 378.8,30.0 385.0,30.0" fill="none" stroke="#a6d189" stroke-width="2"/>
  <text x="45" y="168" fill="#a5adce" font-size="10" font-family="system-ui, -apple-system, sans-serif">Feb 2026</text>
  <text x="385" y="168" text-anchor="end" fill="#a5adce" font-size="10" font-family="system-ui, -apple-system, sans-serif">Apr 2026</text>
  <text x="40" y="150" text-anchor="end" fill="#a5adce" font-size="10" font-family="system-ui, -apple-system, sans-serif">0</text>
  <text x="40" y="35" text-anchor="end" fill="#a5adce" font-size="10" font-family="system-ui, -apple-system, sans-serif">10</text>
</svg>