<svg xmlns="http://www.w3.org/2000/svg" width="400" height="180">
  <rect width="100%" height="100%" fill="#303446" rx="6"/>
  <text x="45" y="18" fill="#c6d0f5" font-size="13" font-weight="600" font-family="system-ui, -apple-system, sans-serif">Cumulative papers read</text>
  <polygon points="45,150 45.0,90.0 56.0,90.0 66.9,90.0 77.9,90.0 88.9,66.0 99.8,54.0 110.8,42.0 121.8,42.0 132.7,42.0 143.7,42.0 154.7,42.0 165.6,30.0 176.6,30.0 187.6,30.0 198.5,30.0 209.5,30.0 220.5,30.0 231.5,30.0 242.4,30.0 253.4,30.0 264.4,30.0 275.3,30.0 286.3,30.0 297.3,30.0 308.2,30.0 319.2,30.0 330.2,30.0 341.1,30.0 352.1,30.0 363.1,30.0 374.0,30.0 385.0,30.0 385,150" fill="#8caaee" opacity="0.3"/>
  <polyline points="45.0,90.0 56.0,90.0 66.9,90.0 77.9,90.0 88.9,66.0 99.8,54.0 110.8,42.0 121.8,42.0 132.7,42.0 143.7,42.0 154.7,42.0 165.6,30.0 176.6,30.0 187.6,30.0 198.5,30.0 209.5,30.0 220.5,30.0 231.5,30.0 242.4,30.0 253.4,30.0 264.4,30.0 275.3,30.0 286.3,30.0 297.3,30.0 308.2,30.0 319.2,30.0 330.2,30.0 341.1,30.0 352.1,30.0 363.1,30.0 374.0,30.0 385.0,30.0" fill="none" stroke="#a6d189" stroke-width="2"/>
  <text x="45" y="168" fill="#a5adce" font-size="10" font-family="system-ui, -apple-system, sans-serif">Feb 2026</text>
  <text x="385" y="168" text-anchor="end" fill="#a5adce" font-size="10" font-family="system-ui, -apple-system, sans-serif">Mar 2026</text>
  <text x="40" y="150" text-anchor="end" fill="#a5adce" font-size="10" font-family="system-ui, -apple-system, sans-serif">0</text>
  <text x="40" y="35" text-anchor="end" fill="#a5adce" font-size="10" font-family="system-ui, -apple-system, sans-serif">10</text>
</svg>