<svg xmlns="http://www.w3.org/2000/svg" width="400" height="180">
  <rect width="100%" height="100%" fill="#303446" rx="6"/>
  <text x="45" y="18" fill="#c6d0f5" font-size="13" font-weight="600" font-family="system-ui, -apple-system, sans-serif">Cumulative papers read</text>
  <polygon points="45,150 45.0,90.0 53.9,90.0 62.9,90.0 71.8,90.0 80.8,66.0 89.7,54.0 98.7,42.0 107.6,42.0 116.6,42.0 125.5,42.0 134.5,42.0 143.4,30.0 152.4,30.0 161.3,30.0 170.3,30.0 179.2,30.0 188.2,30.0 197.1,30.0 206.1,30.0 215.0,30.0 223.9,30.0 232.9,30.0 241.8,30.0 250.8,30.0 259.7,30.0 268.7,30.0 277.6,30.0 286.6,30.0 295.5,30.0 304.5,30.0 313.4,30.0 322.4,30.0 331.3,30.0 340.3,30.0 349.2,30.0 358.2,30.0 367.1,30.0 376.1,30.0 385.0,30.0 385,150" fill="#8caaee" opacity="0.3"/>
  <polyline points="45.0,90.0 53.9,90.0 62.9,90.0 71.8,90.0 80.8,66.0 89.7,54.0 98.7,42.0 107.6,42.0 116.6,42.0 125.5,42.0 134.5,42.0 143.4,30.0 152.4,30.0 161.3,30.0 170.3,30.0 179.2,30.0 188.2,30.0 197.1,30.0 206.1,30.0 215.0,30.0 223.9,30.0 232.9,30.0 241.8,30.0 250.8,30.0 259.7,30.0 268.7,30.0 277.6,30.0 286.6,30.0 295.5,30.0 304.5,30.0 313.4,30.0 322.4,30.0 331.3,30.0 340.3,30.0 349.2,30.0 358.2,30.0 367.1,30.0 376.1,30.0 385.0,30.0" fill="none" stroke="#a6d189" stroke-width="2"/>
  <text x="45" y="168" fill="#a5adce" font-size="10" font-family="system-ui, -apple-system, sans-serif">Feb 2026</text>
  <text x="385" y="168" text-anchor="end" fill="#a5adce" font-size="10" font-family="system-ui, -apple-system, sans-serif">Mar 2026</text>
  <text x="40" y="150" text-anchor="end" fill="#a5adce" font-size="10" font-family="system-ui, -apple-system, sans-serif">0</text>
  <text x="40" y="35" text-anchor="end" fill="#a5adce" font-size="10" font-family="system-ui, -apple-system, sans-serif">10</text>
</svg>