<svg xmlns="http://www.w3.org/2000/svg" width="400" height="180">
  <rect width="100%" height="100%" fill="#303446" rx="6"/>
  <text x="45" y="18" fill="#c6d0f5" font-size="13" font-weight="600" font-family="system-ui, -apple-system, sans-serif">Cumulative papers read</text>
  <polygon points="45,150 45.0,90.0 53.3,90.0 61.6,90.0 69.9,90.0 78.2,66.0 86.5,54.0 94.8,42.0 103.0,42.0 111.3,42.0 119.6,42.0 127.9,42.0 136.2,30.0 144.5,30.0 152.8,30.0 161.1,30.0 169.4,30.0 177.7,30.0 186.0,30.0 194.3,30.0 202.6,30.0 210.9,30.0 219.1,30.0 227.4,30.0 235.7,30.0 244.0,30.0 252.3,30.0 260.6,30.0 268.9,30.0 277.2,30.0 285.5,30.0 293.8,30.0 302.1,30.0 310.4,30.0 318.7,30.0 327.0,30.0 335.2,30.0 343.5,30.0 351.8,30.0 360.1,30.0 368.4,30.0 376.7,30.0 385.0,30.0 385,150" fill="#8caaee" opacity="0.3"/>
  <polyline points="45.0,90.0 53.3,90.0 61.6,90.0 69.9,90.0 78.2,66.0 86.5,54.0 94.8,42.0 103.0,42.0 111.3,42.0 119.6,42.0 127.9,42.0 136.2,30.0 144.5,30.0 152.8,30.0 161.1,30.0 169.4,30.0 177.7,30.0 186.0,30.0 194.3,30.0 202.6,30.0 210.9,30.0 219.1,30.0 227.4,30.0 235.7,30.0 244.0,30.0 252.3,30.0 260.6,30.0 268.9,30.0 277.2,30.0 285.5,30.0 293.8,30.0 302.1,30.0 310.4,30.0 318.7,30.0 327.0,30.0 335.2,30.0 343.5,30.0 351.8,30.0 360.1,30.0 368.4,30.0 376.7,30.0 385.0,30.0" fill="none" stroke="#a6d189" stroke-width="2"/>
  <text x="45" y="168" fill="#a5adce" font-size="10" font-family="system-ui, -apple-system, sans-serif">Feb 2026</text>
  <text x="385" y="168" text-anchor="end" fill="#a5adce" font-size="10" font-family="system-ui, -apple-system, sans-serif">Apr 2026</text>
  <text x="40" y="150" text-anchor="end" fill="#a5adce" font-size="10" font-family="system-ui, -apple-system, sans-serif">0</text>
  <text x="40" y="35" text-anchor="end" fill="#a5adce" font-size="10" font-family="system-ui, -apple-system, sans-serif">10</text>
</svg>