<svg xmlns="http://www.w3.org/2000/svg" width="400" height="180">
  <rect width="100%" height="100%" fill="#303446" rx="6"/>
  <text x="45" y="18" fill="#c6d0f5" font-size="13" font-weight="600" font-family="system-ui, -apple-system, sans-serif">Cumulative papers read</text>
  <polygon points="45,150 45.0,90.0 53.5,90.0 62.0,90.0 70.5,90.0 79.0,66.0 87.5,54.0 96.0,42.0 104.5,42.0 113.0,42.0 121.5,42.0 130.0,42.0 138.5,30.0 147.0,30.0 155.5,30.0 164.0,30.0 172.5,30.0 181.0,30.0 189.5,30.0 198.0,30.0 206.5,30.0 215.0,30.0 223.5,30.0 232.0,30.0 240.5,30.0 249.0,30.0 257.5,30.0 266.0,30.0 274.5,30.0 283.0,30.0 291.5,30.0 300.0,30.0 308.5,30.0 317.0,30.0 325.5,30.0 334.0,30.0 342.5,30.0 351.0,30.0 359.5,30.0 368.0,30.0 376.5,30.0 385.0,30.0 385,150" fill="#8caaee" opacity="0.3"/>
  <polyline points="45.0,90.0 53.5,90.0 62.0,90.0 70.5,90.0 79.0,66.0 87.5,54.0 96.0,42.0 104.5,42.0 113.0,42.0 121.5,42.0 130.0,42.0 138.5,30.0 147.0,30.0 155.5,30.0 164.0,30.0 172.5,30.0 181.0,30.0 189.5,30.0 198.0,30.0 206.5,30.0 215.0,30.0 223.5,30.0 232.0,30.0 240.5,30.0 249.0,30.0 257.5,30.0 266.0,30.0 274.5,30.0 283.0,30.0 291.5,30.0 300.0,30.0 308.5,30.0 317.0,30.0 325.5,30.0 334.0,30.0 342.5,30.0 351.0,30.0 359.5,30.0 368.0,30.0 376.5,30.0 385.0,30.0" fill="none" stroke="#a6d189" stroke-width="2"/>
  <text x="45" y="168" fill="#a5adce" font-size="10" font-family="system-ui, -apple-system, sans-serif">Feb 2026</text>
  <text x="385" y="168" text-anchor="end" fill="#a5adce" font-size="10" font-family="system-ui, -apple-system, sans-serif">Mar 2026</text>
  <text x="40" y="150" text-anchor="end" fill="#a5adce" font-size="10" font-family="system-ui, -apple-system, sans-serif">0</text>
  <text x="40" y="35" text-anchor="end" fill="#a5adce" font-size="10" font-family="system-ui, -apple-system, sans-serif">10</text>
</svg>