<svg xmlns="http://www.w3.org/2000/svg" width="400" height="180">
  <rect width="100%" height="100%" fill="#303446" rx="6"/>
  <text x="45" y="18" fill="#c6d0f5" font-size="13" font-weight="600" font-family="system-ui, -apple-system, sans-serif">Cumulative papers read</text>
  <polygon points="45,150 45.0,90.0 56.7,90.0 68.4,90.0 80.2,90.0 91.9,66.0 103.6,54.0 115.3,42.0 127.1,42.0 138.8,42.0 150.5,42.0 162.2,42.0 174.0,30.0 185.7,30.0 197.4,30.0 209.1,30.0 220.9,30.0 232.6,30.0 244.3,30.0 256.0,30.0 267.8,30.0 279.5,30.0 291.2,30.0 302.9,30.0 314.7,30.0 326.4,30.0 338.1,30.0 349.8,30.0 361.6,30.0 373.3,30.0 385.0,30.0 385,150" fill="#8caaee" opacity="0.3"/>
  <polyline points="45.0,90.0 56.7,90.0 68.4,90.0 80.2,90.0 91.9,66.0 103.6,54.0 115.3,42.0 127.1,42.0 138.8,42.0 150.5,42.0 162.2,42.0 174.0,30.0 185.7,30.0 197.4,30.0 209.1,30.0 220.9,30.0 232.6,30.0 244.3,30.0 256.0,30.0 267.8,30.0 279.5,30.0 291.2,30.0 302.9,30.0 314.7,30.0 326.4,30.0 338.1,30.0 349.8,30.0 361.6,30.0 373.3,30.0 385.0,30.0" fill="none" stroke="#a6d189" stroke-width="2"/>
  <text x="45" y="168" fill="#a5adce" font-size="10" font-family="system-ui, -apple-system, sans-serif">Feb 2026</text>
  <text x="385" y="168" text-anchor="end" fill="#a5adce" font-size="10" font-family="system-ui, -apple-system, sans-serif">Mar 2026</text>
  <text x="40" y="150" text-anchor="end" fill="#a5adce" font-size="10" font-family="system-ui, -apple-system, sans-serif">0</text>
  <text x="40" y="35" text-anchor="end" fill="#a5adce" font-size="10" font-family="system-ui, -apple-system, sans-serif">10</text>
</svg>