<svg xmlns="http://www.w3.org/2000/svg" width="400" height="180">
  <rect width="100%" height="100%" fill="#303446" rx="6"/>
  <text x="45" y="18" fill="#c6d0f5" font-size="13" font-weight="600" font-family="system-ui, -apple-system, sans-serif">Cumulative papers read</text>
  <polygon points="45,150 45.0,90.0 54.4,90.0 63.9,90.0 73.3,90.0 82.8,66.0 92.2,54.0 101.7,42.0 111.1,42.0 120.6,42.0 130.0,42.0 139.4,42.0 148.9,30.0 158.3,30.0 167.8,30.0 177.2,30.0 186.7,30.0 196.1,30.0 205.6,30.0 215.0,30.0 224.4,30.0 233.9,30.0 243.3,30.0 252.8,30.0 262.2,30.0 271.7,30.0 281.1,30.0 290.6,30.0 300.0,30.0 309.4,30.0 318.9,30.0 328.3,30.0 337.8,30.0 347.2,30.0 356.7,30.0 366.1,30.0 375.6,30.0 385.0,30.0 385,150" fill="#8caaee" opacity="0.3"/>
  <polyline points="45.0,90.0 54.4,90.0 63.9,90.0 73.3,90.0 82.8,66.0 92.2,54.0 101.7,42.0 111.1,42.0 120.6,42.0 130.0,42.0 139.4,42.0 148.9,30.0 158.3,30.0 167.8,30.0 177.2,30.0 186.7,30.0 196.1,30.0 205.6,30.0 215.0,30.0 224.4,30.0 233.9,30.0 243.3,30.0 252.8,30.0 262.2,30.0 271.7,30.0 281.1,30.0 290.6,30.0 300.0,30.0 309.4,30.0 318.9,30.0 328.3,30.0 337.8,30.0 347.2,30.0 356.7,30.0 366.1,30.0 375.6,30.0 385.0,30.0" fill="none" stroke="#a6d189" stroke-width="2"/>
  <text x="45" y="168" fill="#a5adce" font-size="10" font-family="system-ui, -apple-system, sans-serif">Feb 2026</text>
  <text x="385" y="168" text-anchor="end" fill="#a5adce" font-size="10" font-family="system-ui, -apple-system, sans-serif">Mar 2026</text>
  <text x="40" y="150" text-anchor="end" fill="#a5adce" font-size="10" font-family="system-ui, -apple-system, sans-serif">0</text>
  <text x="40" y="35" text-anchor="end" fill="#a5adce" font-size="10" font-family="system-ui, -apple-system, sans-serif">10</text>
</svg>