<svg xmlns="http://www.w3.org/2000/svg" width="400" height="180">
  <rect width="100%" height="100%" fill="#303446" rx="6"/>
  <text x="45" y="18" fill="#c6d0f5" font-size="13" font-weight="600" font-family="system-ui, -apple-system, sans-serif">Cumulative papers read</text>
  <polygon points="45,150 45.0,90.0 52.9,90.0 60.8,90.0 68.7,90.0 76.6,66.0 84.5,54.0 92.4,42.0 100.3,42.0 108.3,42.0 116.2,42.0 124.1,42.0 132.0,30.0 139.9,30.0 147.8,30.0 155.7,30.0 163.6,30.0 171.5,30.0 179.4,30.0 187.3,30.0 195.2,30.0 203.1,30.0 211.0,30.0 219.0,30.0 226.9,30.0 234.8,30.0 242.7,30.0 250.6,30.0 258.5,30.0 266.4,30.0 274.3,30.0 282.2,30.0 290.1,30.0 298.0,30.0 305.9,30.0 313.8,30.0 321.7,30.0 329.7,30.0 337.6,30.0 345.5,30.0 353.4,30.0 361.3,30.0 369.2,30.0 377.1,30.0 385.0,30.0 385,150" fill="#8caaee" opacity="0.3"/>
  <polyline points="45.0,90.0 52.9,90.0 60.8,90.0 68.7,90.0 76.6,66.0 84.5,54.0 92.4,42.0 100.3,42.0 108.3,42.0 116.2,42.0 124.1,42.0 132.0,30.0 139.9,30.0 147.8,30.0 155.7,30.0 163.6,30.0 171.5,30.0 179.4,30.0 187.3,30.0 195.2,30.0 203.1,30.0 211.0,30.0 219.0,30.0 226.9,30.0 234.8,30.0 242.7,30.0 250.6,30.0 258.5,30.0 266.4,30.0 274.3,30.0 282.2,30.0 290.1,30.0 298.0,30.0 305.9,30.0 313.8,30.0 321.7,30.0 329.7,30.0 337.6,30.0 345.5,30.0 353.4,30.0 361.3,30.0 369.2,30.0 377.1,30.0 385.0,30.0" fill="none" stroke="#a6d189" stroke-width="2"/>
  <text x="45" y="168" fill="#a5adce" font-size="10" font-family="system-ui, -apple-system, sans-serif">Feb 2026</text>
  <text x="385" y="168" text-anchor="end" fill="#a5adce" font-size="10" font-family="system-ui, -apple-system, sans-serif">Apr 2026</text>
  <text x="40" y="150" text-anchor="end" fill="#a5adce" font-size="10" font-family="system-ui, -apple-system, sans-serif">0</text>
  <text x="40" y="35" text-anchor="end" fill="#a5adce" font-size="10" font-family="system-ui, -apple-system, sans-serif">10</text>
</svg>