<svg xmlns="http://www.w3.org/2000/svg" width="400" height="180">
  <rect width="100%" height="100%" fill="#303446" rx="6"/>
  <text x="45" y="18" fill="#c6d0f5" font-size="13" font-weight="600" font-family="system-ui, -apple-system, sans-serif">Cumulative papers read</text>
  <polygon points="45,150 45.0,90.0 54.7,90.0 64.4,90.0 74.1,90.0 83.9,66.0 93.6,54.0 103.3,42.0 113.0,42.0 122.7,42.0 132.4,42.0 142.1,42.0 151.9,30.0 161.6,30.0 171.3,30.0 181.0,30.0 190.7,30.0 200.4,30.0 210.1,30.0 219.9,30.0 229.6,30.0 239.3,30.0 249.0,30.0 258.7,30.0 268.4,30.0 278.1,30.0 287.9,30.0 297.6,30.0 307.3,30.0 317.0,30.0 326.7,30.0 336.4,30.0 346.1,30.0 355.9,30.0 365.6,30.0 375.3,30.0 385.0,30.0 385,150" fill="#8caaee" opacity="0.3"/>
  <polyline points="45.0,90.0 54.7,90.0 64.4,90.0 74.1,90.0 83.9,66.0 93.6,54.0 103.3,42.0 113.0,42.0 122.7,42.0 132.4,42.0 142.1,42.0 151.9,30.0 161.6,30.0 171.3,30.0 181.0,30.0 190.7,30.0 200.4,30.0 210.1,30.0 219.9,30.0 229.6,30.0 239.3,30.0 249.0,30.0 258.7,30.0 268.4,30.0 278.1,30.0 287.9,30.0 297.6,30.0 307.3,30.0 317.0,30.0 326.7,30.0 336.4,30.0 346.1,30.0 355.9,30.0 365.6,30.0 375.3,30.0 385.0,30.0" fill="none" stroke="#a6d189" stroke-width="2"/>
  <text x="45" y="168" fill="#a5adce" font-size="10" font-family="system-ui, -apple-system, sans-serif">Feb 2026</text>
  <text x="385" y="168" text-anchor="end" fill="#a5adce" font-size="10" font-family="system-ui, -apple-system, sans-serif">Mar 2026</text>
  <text x="40" y="150" text-anchor="end" fill="#a5adce" font-size="10" font-family="system-ui, -apple-system, sans-serif">0</text>
  <text x="40" y="35" text-anchor="end" fill="#a5adce" font-size="10" font-family="system-ui, -apple-system, sans-serif">10</text>
</svg>