<svg xmlns="http://www.w3.org/2000/svg" width="898" height="172">
  <rect width="100%" height="100%" fill="#303446" rx="6"/>
  <text x="40" y="18" fill="#c6d0f5" font-size="14" font-weight="600" font-family="system-ui, -apple-system, sans-serif">5 papers read in 2026</text>
  <text x="40" y="42" fill="#a5adce" font-size="11" font-family="system-ui, -apple-system, sans-serif">Jan</text>
  <text x="104" y="42" fill="#a5adce" font-size="11" font-family="system-ui, -apple-system, sans-serif">Feb</text>
  <text x="168" y="42" fill="#a5adce" font-size="11" font-family="system-ui, -apple-system, sans-serif">Mar</text>
  <text x="248" y="42" fill="#a5adce" font-size="11" font-family="system-ui, -apple-system, sans-serif">Apr</text>
  <text x="312" y="42" fill="#a5adce" font-size="11" font-family="system-ui, -apple-system, sans-serif">May</text>
  <text x="392" y="42" fill="#a5adce" font-size="11" font-family="system-ui, -apple-system, sans-serif">Jun</text>
  <text x="456" y="42" fill="#a5adce" font-size="11" font-family="system-ui, -apple-system, sans-serif">Jul</text>
  <text x="520" y="42" fill="#a5adce" font-size="11" font-family="system-ui, -apple-system, sans-serif">Aug</text>
  <text x="600" y="42" fill="#a5adce" font-size="11" font-family="system-ui, -apple-system, sans-serif">Sep</text>
  <text x="664" y="42" fill="#a5adce" font-size="11" font-family="system-ui, -apple-system, sans-serif">Oct</text>
  <text x="728" y="42" fill="#a5adce" font-size="11" font-family="system-ui, -apple-system, sans-serif">Nov</text>
  <text x="808" y="42" fill="#a5adce" font-size="11" font-family="system-ui, -apple-system, sans-serif">Dec</text>
  <text x="32" y="61" text-anchor="end" fill="#a5adce" font-size="10" font-family="system-ui, -apple-system, sans-serif">Mon</text>
  <text x="32" y="93" text-anchor="end" fill="#a5adce" font-size="10" font-family="system-ui, -apple-system, sans-serif">Wed</text>
  <text x="32" y="125" text-anchor="end" fill="#a5adce" font-size="10" font-family="system-ui, -apple-system, sans-serif">Fri</text>
  <text x="32" y="157" text-anchor="end" fill="#a5adce" font-size="10" font-family="system-ui, -apple-system, sans-serif">Sun</text>
  <rect x="40" y="98" width="13" height="13" rx="2" ry="2" fill="#414559"><title>2026-01-01</title></rect>
  <rect x="40" y="114" width="13" height="13" rx="2" ry="2" fill="#414559"><title>2026-01-02</title></rect>
  <rect x="40" y="130" width="13" height="13" rx="2" ry="2" fill="#414559"><title>2026-01-03</title></rect>
  <rect x="40" y="146" width="13" height="13" rx="2" ry="2" fill="#414559"><title>2026-01-04</title></rect>
  <rect x="56" y="50" width="13" height="13" rx="2" ry="2" fill="#414559"><title>2026-01-05</title></rect>
  <rect x="56" y="66" width="13" height="13" rx="2" ry="2" fill="#414559"><title>2026-01-06</title></rect>
  <rect x="56" y="82" width="13" height="13" rx="2" ry="2" fill="#414559"><title>2026-01-07</title></rect>
  <rect x="56" y="98" width="13" height="13" rx="2" ry="2" fill="#414559"><title>2026-01-08</title></rect>
  <rect x="56" y="114" width="13" height="13" rx="2" ry="2" fill="#414559"><title>2026-01-09</title></rect>
  <rect x="56" y="130" width="13" height="13" rx="2" ry="2" fill="#414559"><title>2026-01-10</title></rect>
  <rect x="56" y="146" width="13" height="13" rx="2" ry="2" fill="#414559"><title>2026-01-11</title></rect>
  <rect x="72" y="50" width="13" height="13" rx="2" ry="2" fill="#414559"><title>2026-01-12</title></rect>
  <rect x="72" y="66" width="13" height="13" rx="2" ry="2" fill="#414559"><title>2026-01-13</title></rect>
  <rect x="72" y="82" width="13" height="13" rx="2" ry="2" fill="#414559"><title>2026-01-14</title></rect>
  <rect x="72" y="98" width="13" height="13" rx="2" ry="2" fill="#414559"><title>2026-01-15</title></rect>
  <rect x="72" y="114" width="13" height="13" rx="2" ry="2" fill="#414559"><title>2026-01-16</title></rect>
  <rect x="72" y="130" width="13" height="13" rx="2" ry="2" fill="#414559"><title>2026-01-17</title></rect>
  <rect x="72" y="146" width="13" height="13" rx="2" ry="2" fill="#414559"><title>2026-01-18</title></rect>
  <rect x="88" y="50" width="13" height="13" rx="2" ry="2" fill="#414559"><title>2026-01-19</title></rect>
  <rect x="88" y="66" width="13" height="13" rx="2" ry="2" fill="#414559"><title>2026-01-20</title></rect>
  <rect x="88" y="82" width="13" height="13" rx="2" ry="2" fill="#414559"><title>2026-01-21</title></rect>
  <rect x="88" y="98" width="13" height="13" rx="2" ry="2" fill="#414559"><title>2026-01-22</title></rect>
  <rect x="88" y="114" width="13" height="13" rx="2" ry="2" fill="#414559"><title>2026-01-23</title></rect>
  <rect x="88" y="130" width="13" height="13" rx="2" ry="2" fill="#414559"><title>2026-01-24</title></rect>
  <rect x="88" y="146" width="13" height="13" rx="2" ry="2" fill="#414559"><title>2026-01-25</title></rect>
  <rect x="104" y="50" width="13" height="13" rx="2" ry="2" fill="#414559"><title>2026-01-26</title></rect>
  <rect x="104" y="66" width="13" height="13" rx="2" ry="2" fill="#414559"><title>2026-01-27</title></rect>
  <rect x="104" y="82" width="13" height="13" rx="2" ry="2" fill="#414559"><title>2026-01-28</title></rect>
  <rect x="104" y="98" width="13" height="13" rx="2" ry="2" fill="#414559"><title>2026-01-29</title></rect>
  <rect x="104" y="114" width="13" height="13" rx="2" ry="2" fill="#414559"><title>2026-01-30</title></rect>
  <rect x="104" y="130" width="13" height="13" rx="2" ry="2" fill="#414559"><title>2026-01-31</title></rect>
  <rect x="104" y="146" width="13" height="13" rx="2" ry="2" fill="#414559"><title>2026-02-01</title></rect>
  <rect x="120" y="50" width="13" height="13" rx="2" ry="2" fill="#414559"><title>2026-02-02</title></rect>
  <rect x="120" y="66" width="13" height="13" rx="2" ry="2" fill="#414559"><title>2026-02-03</title></rect>
  <rect x="120" y="82" width="13" height="13" rx="2" ry="2" fill="#414559"><title>2026-02-04</title></rect>
  <rect x="120" y="98" width="13" height="13" rx="2" ry="2" fill="#414559"><title>2026-02-05</title></rect>
  <rect x="120" y="114" width="13" height="13" rx="2" ry="2" fill="#414559"><title>2026-02-06</title></rect>
  <rect x="120" y="130" width="13" height="13" rx="2" ry="2" fill="#414559"><title>2026-02-07</title></rect>
  <rect x="120" y="146" width="13" height="13" rx="2" ry="2" fill="#414559"><title>2026-02-08</title></rect>
  <rect x="136" y="50" width="13" height="13" rx="2" ry="2" fill="#414559"><title>2026-02-09</title></rect>
  <rect x="136" y="66" width="13" height="13" rx="2" ry="2" fill="#414559"><title>2026-02-10</title></rect>
  <rect x="136" y="82" width="13" height="13" rx="2" ry="2" fill="#414559"><title>2026-02-11</title></rect>
  <rect x="136" y="98" width="13" height="13" rx="2" ry="2" fill="#414559"><title>2026-02-12</title></rect>
  <rect x="136" y="114" width="13" height="13" rx="2" ry="2" fill="#414559"><title>2026-02-13</title></rect>
  <rect x="136" y="130" width="13" height="13" rx="2" ry="2" fill="#414559"><title>2026-02-14</title></rect>
  <rect x="136" y="146" width="13" height="13" rx="2" ry="2" fill="#414559"><title>2026-02-15</title></rect>
  <rect x="152" y="50" width="13" height="13" rx="2" ry="2" fill="#414559"><title>2026-02-16</title></rect>
  <rect x="152" y="66" width="13" height="13" rx="2" ry="2" fill="#414559"><title>2026-02-17</title></rect>
  <rect x="152" y="82" width="13" height="13" rx="2" ry="2" fill="#414559"><title>2026-02-18</title></rect>
  <rect x="152" y="98" width="13" height="13" rx="2" ry="2" fill="#a6d189"><title>2026-02-19&#10;5 papers&#10;  - Attention Is All You Need&#10;  - LLM-JEPA: Large Language Models Meet Joint Embedding Predictive Architectures&#10;  - Open Problems in Mechanistic Interpretability&#10;  - Don't Make Your LLM an Evaluation Benchmark Cheater&#10;  - Beto, Bentz, Becas: The Surprising Cross-Lingual Effectiveness of BERT</title></rect>
  <rect x="152" y="114" width="13" height="13" rx="2" ry="2" fill="#414559"><title>2026-02-20</title></rect>
  <rect x="152" y="130" width="13" height="13" rx="2" ry="2" fill="#414559"><title>2026-02-21</title></rect>
  <rect x="152" y="146" width="13" height="13" rx="2" ry="2" fill="#414559"><title>2026-02-22</title></rect>
  <rect x="168" y="50" width="13" height="13" rx="2" ry="2" fill="#414559"><title>2026-02-23</title></rect>
  <rect x="168" y="66" width="13" height="13" rx="2" ry="2" fill="#414559"><title>2026-02-24</title></rect>
  <rect x="168" y="82" width="13" height="13" rx="2" ry="2" fill="#414559"><title>2026-02-25</title></rect>
  <rect x="168" y="98" width="13" height="13" rx="2" ry="2" fill="#414559"><title>2026-02-26</title></rect>
  <rect x="168" y="114" width="13" height="13" rx="2" ry="2" fill="#414559"><title>2026-02-27</title></rect>
  <rect x="168" y="130" width="13" height="13" rx="2" ry="2" fill="#414559"><title>2026-02-28</title></rect>
  <rect x="168" y="146" width="13" height="13" rx="2" ry="2" fill="#414559"><title>2026-03-01</title></rect>
  <rect x="184" y="50" width="13" height="13" rx="2" ry="2" fill="#414559"><title>2026-03-02</title></rect>
  <rect x="184" y="66" width="13" height="13" rx="2" ry="2" fill="#414559"><title>2026-03-03</title></rect>
  <rect x="184" y="82" width="13" height="13" rx="2" ry="2" fill="#414559"><title>2026-03-04</title></rect>
  <rect x="184" y="98" width="13" height="13" rx="2" ry="2" fill="#414559"><title>2026-03-05</title></rect>
  <rect x="184" y="114" width="13" height="13" rx="2" ry="2" fill="#414559"><title>2026-03-06</title></rect>
  <rect x="184" y="130" width="13" height="13" rx="2" ry="2" fill="#414559"><title>2026-03-07</title></rect>
  <rect x="184" y="146" width="13" height="13" rx="2" ry="2" fill="#414559"><title>2026-03-08</title></rect>
  <rect x="200" y="50" width="13" height="13" rx="2" ry="2" fill="#414559"><title>2026-03-09</title></rect>
  <rect x="200" y="66" width="13" height="13" rx="2" ry="2" fill="#414559"><title>2026-03-10</title></rect>
  <rect x="200" y="82" width="13" height="13" rx="2" ry="2" fill="#414559"><title>2026-03-11</title></rect>
  <rect x="200" y="98" width="13" height="13" rx="2" ry="2" fill="#414559"><title>2026-03-12</title></rect>
  <rect x="200" y="114" width="13" height="13" rx="2" ry="2" fill="#414559"><title>2026-03-13</title></rect>
  <rect x="200" y="130" width="13" height="13" rx="2" ry="2" fill="#414559"><title>2026-03-14</title></rect>
  <rect x="200" y="146" width="13" height="13" rx="2" ry="2" fill="#414559"><title>2026-03-15</title></rect>
  <rect x="216" y="50" width="13" height="13" rx="2" ry="2" fill="#414559"><title>2026-03-16</title></rect>
  <rect x="216" y="66" width="13" height="13" rx="2" ry="2" fill="#414559"><title>2026-03-17</title></rect>
  <rect x="216" y="82" width="13" height="13" rx="2" ry="2" fill="#414559"><title>2026-03-18</title></rect>
  <rect x="216" y="98" width="13" height="13" rx="2" ry="2" fill="#414559"><title>2026-03-19</title></rect>
  <rect x="216" y="114" width="13" height="13" rx="2" ry="2" fill="#414559"><title>2026-03-20</title></rect>
  <rect x="216" y="130" width="13" height="13" rx="2" ry="2" fill="#414559"><title>2026-03-21</title></rect>
  <rect x="216" y="146" width="13" height="13" rx="2" ry="2" fill="#414559"><title>2026-03-22</title></rect>
  <rect x="232" y="50" width="13" height="13" rx="2" ry="2" fill="#414559"><title>2026-03-23</title></rect>
  <rect x="232" y="66" width="13" height="13" rx="2" ry="2" fill="#414559"><title>2026-03-24</title></rect>
  <rect x="232" y="82" width="13" height="13" rx="2" ry="2" fill="#414559"><title>2026-03-25</title></rect>
  <rect x="232" y="98" width="13" height="13" rx="2" ry="2" fill="#414559"><title>2026-03-26</title></rect>
  <rect x="232" y="114" width="13" height="13" rx="2" ry="2" fill="#414559"><title>2026-03-27</title></rect>
  <rect x="232" y="130" width="13" height="13" rx="2" ry="2" fill="#414559"><title>2026-03-28</title></rect>
  <rect x="232" y="146" width="13" height="13" rx="2" ry="2" fill="#414559"><title>2026-03-29</title></rect>
  <rect x="248" y="50" width="13" height="13" rx="2" ry="2" fill="#414559"><title>2026-03-30</title></rect>
  <rect x="248" y="66" width="13" height="13" rx="2" ry="2" fill="#414559"><title>2026-03-31</title></rect>
  <rect x="248" y="82" width="13" height="13" rx="2" ry="2" fill="#414559"><title>2026-04-01</title></rect>
  <rect x="248" y="98" width="13" height="13" rx="2" ry="2" fill="#414559"><title>2026-04-02</title></rect>
  <rect x="248" y="114" width="13" height="13" rx="2" ry="2" fill="#414559"><title>2026-04-03</title></rect>
  <rect x="248" y="130" width="13" height="13" rx="2" ry="2" fill="#414559"><title>2026-04-04</title></rect>
  <rect x="248" y="146" width="13" height="13" rx="2" ry="2" fill="#414559"><title>2026-04-05</title></rect>
  <rect x="264" y="50" width="13" height="13" rx="2" ry="2" fill="#414559"><title>2026-04-06</title></rect>
  <rect x="264" y="66" width="13" height="13" rx="2" ry="2" fill="#414559"><title>2026-04-07</title></rect>
  <rect x="264" y="82" width="13" height="13" rx="2" ry="2" fill="#414559"><title>2026-04-08</title></rect>
  <rect x="264" y="98" width="13" height="13" rx="2" ry="2" fill="#414559"><title>2026-04-09</title></rect>
  <rect x="264" y="114" width="13" height="13" rx="2" ry="2" fill="#414559"><title>2026-04-10</title></rect>
  <rect x="264" y="130" width="13" height="13" rx="2" ry="2" fill="#414559"><title>2026-04-11</title></rect>
  <rect x="264" y="146" width="13" height="13" rx="2" ry="2" fill="#414559"><title>2026-04-12</title></rect>
  <rect x="280" y="50" width="13" height="13" rx="2" ry="2" fill="#414559"><title>2026-04-13</title></rect>
  <rect x="280" y="66" width="13" height="13" rx="2" ry="2" fill="#414559"><title>2026-04-14</title></rect>
  <rect x="280" y="82" width="13" height="13" rx="2" ry="2" fill="#414559"><title>2026-04-15</title></rect>
  <rect x="280" y="98" width="13" height="13" rx="2" ry="2" fill="#414559"><title>2026-04-16</title></rect>
  <rect x="280" y="114" width="13" height="13" rx="2" ry="2" fill="#414559"><title>2026-04-17</title></rect>
  <rect x="280" y="130" width="13" height="13" rx="2" ry="2" fill="#414559"><title>2026-04-18</title></rect>
  <rect x="280" y="146" width="13" height="13" rx="2" ry="2" fill="#414559"><title>2026-04-19</title></rect>
  <rect x="296" y="50" width="13" height="13" rx="2" ry="2" fill="#414559"><title>2026-04-20</title></rect>
  <rect x="296" y="66" width="13" height="13" rx="2" ry="2" fill="#414559"><title>2026-04-21</title></rect>
  <rect x="296" y="82" width="13" height="13" rx="2" ry="2" fill="#414559"><title>2026-04-22</title></rect>
  <rect x="296" y="98" width="13" height="13" rx="2" ry="2" fill="#414559"><title>2026-04-23</title></rect>
  <rect x="296" y="114" width="13" height="13" rx="2" ry="2" fill="#414559"><title>2026-04-24</title></rect>
  <rect x="296" y="130" width="13" height="13" rx="2" ry="2" fill="#414559"><title>2026-04-25</title></rect>
  <rect x="296" y="146" width="13" height="13" rx="2" ry="2" fill="#414559"><title>2026-04-26</title></rect>
  <rect x="312" y="50" width="13" height="13" rx="2" ry="2" fill="#414559"><title>2026-04-27</title></rect>
  <rect x="312" y="66" width="13" height="13" rx="2" ry="2" fill="#414559"><title>2026-04-28</title></rect>
  <rect x="312" y="82" width="13" height="13" rx="2" ry="2" fill="#414559"><title>2026-04-29</title></rect>
  <rect x="312" y="98" width="13" height="13" rx="2" ry="2" fill="#414559"><title>2026-04-30</title></rect>
  <rect x="312" y="114" width="13" height="13" rx="2" ry="2" fill="#414559"><title>2026-05-01</title></rect>
  <rect x="312" y="130" width="13" height="13" rx="2" ry="2" fill="#414559"><title>2026-05-02</title></rect>
  <rect x="312" y="146" width="13" height="13" rx="2" ry="2" fill="#414559"><title>2026-05-03</title></rect>
  <rect x="328" y="50" width="13" height="13" rx="2" ry="2" fill="#414559"><title>2026-05-04</title></rect>
  <rect x="328" y="66" width="13" height="13" rx="2" ry="2" fill="#414559"><title>2026-05-05</title></rect>
  <rect x="328" y="82" width="13" height="13" rx="2" ry="2" fill="#414559"><title>2026-05-06</title></rect>
  <rect x="328" y="98" width="13" height="13" rx="2" ry="2" fill="#414559"><title>2026-05-07</title></rect>
  <rect x="328" y="114" width="13" height="13" rx="2" ry="2" fill="#414559"><title>2026-05-08</title></rect>
  <rect x="328" y="130" width="13" height="13" rx="2" ry="2" fill="#414559"><title>2026-05-09</title></rect>
  <rect x="328" y="146" width="13" height="13" rx="2" ry="2" fill="#414559"><title>2026-05-10</title></rect>
  <rect x="344" y="50" width="13" height="13" rx="2" ry="2" fill="#414559"><title>2026-05-11</title></rect>
  <rect x="344" y="66" width="13" height="13" rx="2" ry="2" fill="#414559"><title>2026-05-12</title></rect>
  <rect x="344" y="82" width="13" height="13" rx="2" ry="2" fill="#414559"><title>2026-05-13</title></rect>
  <rect x="344" y="98" width="13" height="13" rx="2" ry="2" fill="#414559"><title>2026-05-14</title></rect>
  <rect x="344" y="114" width="13" height="13" rx="2" ry="2" fill="#414559"><title>2026-05-15</title></rect>
  <rect x="344" y="130" width="13" height="13" rx="2" ry="2" fill="#414559"><title>2026-05-16</title></rect>
  <rect x="344" y="146" width="13" height="13" rx="2" ry="2" fill="#414559"><title>2026-05-17</title></rect>
  <rect x="360" y="50" width="13" height="13" rx="2" ry="2" fill="#414559"><title>2026-05-18</title></rect>
  <rect x="360" y="66" width="13" height="13" rx="2" ry="2" fill="#414559"><title>2026-05-19</title></rect>
  <rect x="360" y="82" width="13" height="13" rx="2" ry="2" fill="#414559"><title>2026-05-20</title></rect>
  <rect x="360" y="98" width="13" height="13" rx="2" ry="2" fill="#414559"><title>2026-05-21</title></rect>
  <rect x="360" y="114" width="13" height="13" rx="2" ry="2" fill="#414559"><title>2026-05-22</title></rect>
  <rect x="360" y="130" width="13" height="13" rx="2" ry="2" fill="#414559"><title>2026-05-23</title></rect>
  <rect x="360" y="146" width="13" height="13" rx="2" ry="2" fill="#414559"><title>2026-05-24</title></rect>
  <rect x="376" y="50" width="13" height="13" rx="2" ry="2" fill="#414559"><title>2026-05-25</title></rect>
  <rect x="376" y="66" width="13" height="13" rx="2" ry="2" fill="#414559"><title>2026-05-26</title></rect>
  <rect x="376" y="82" width="13" height="13" rx="2" ry="2" fill="#414559"><title>2026-05-27</title></rect>
  <rect x="376" y="98" width="13" height="13" rx="2" ry="2" fill="#414559"><title>2026-05-28</title></rect>
  <rect x="376" y="114" width="13" height="13" rx="2" ry="2" fill="#414559"><title>2026-05-29</title></rect>
  <rect x="376" y="130" width="13" height="13" rx="2" ry="2" fill="#414559"><title>2026-05-30</title></rect>
  <rect x="376" y="146" width="13" height="13" rx="2" ry="2" fill="#414559"><title>2026-05-31</title></rect>
  <rect x="392" y="50" width="13" height="13" rx="2" ry="2" fill="#414559"><title>2026-06-01</title></rect>
  <rect x="392" y="66" width="13" height="13" rx="2" ry="2" fill="#414559"><title>2026-06-02</title></rect>
  <rect x="392" y="82" width="13" height="13" rx="2" ry="2" fill="#414559"><title>2026-06-03</title></rect>
  <rect x="392" y="98" width="13" height="13" rx="2" ry="2" fill="#414559"><title>2026-06-04</title></rect>
  <rect x="392" y="114" width="13" height="13" rx="2" ry="2" fill="#414559"><title>2026-06-05</title></rect>
  <rect x="392" y="130" width="13" height="13" rx="2" ry="2" fill="#414559"><title>2026-06-06</title></rect>
  <rect x="392" y="146" width="13" height="13" rx="2" ry="2" fill="#414559"><title>2026-06-07</title></rect>
  <rect x="408" y="50" width="13" height="13" rx="2" ry="2" fill="#414559"><title>2026-06-08</title></rect>
  <rect x="408" y="66" width="13" height="13" rx="2" ry="2" fill="#414559"><title>2026-06-09</title></rect>
  <rect x="408" y="82" width="13" height="13" rx="2" ry="2" fill="#414559"><title>2026-06-10</title></rect>
  <rect x="408" y="98" width="13" height="13" rx="2" ry="2" fill="#414559"><title>2026-06-11</title></rect>
  <rect x="408" y="114" width="13" height="13" rx="2" ry="2" fill="#414559"><title>2026-06-12</title></rect>
  <rect x="408" y="130" width="13" height="13" rx="2" ry="2" fill="#414559"><title>2026-06-13</title></rect>
  <rect x="408" y="146" width="13" height="13" rx="2" ry="2" fill="#414559"><title>2026-06-14</title></rect>
  <rect x="424" y="50" width="13" height="13" rx="2" ry="2" fill="#414559"><title>2026-06-15</title></rect>
  <rect x="424" y="66" width="13" height="13" rx="2" ry="2" fill="#414559"><title>2026-06-16</title></rect>
  <rect x="424" y="82" width="13" height="13" rx="2" ry="2" fill="#414559"><title>2026-06-17</title></rect>
  <rect x="424" y="98" width="13" height="13" rx="2" ry="2" fill="#414559"><title>2026-06-18</title></rect>
  <rect x="424" y="114" width="13" height="13" rx="2" ry="2" fill="#414559"><title>2026-06-19</title></rect>
  <rect x="424" y="130" width="13" height="13" rx="2" ry="2" fill="#414559"><title>2026-06-20</title></rect>
  <rect x="424" y="146" width="13" height="13" rx="2" ry="2" fill="#414559"><title>2026-06-21</title></rect>
  <rect x="440" y="50" width="13" height="13" rx="2" ry="2" fill="#414559"><title>2026-06-22</title></rect>
  <rect x="440" y="66" width="13" height="13" rx="2" ry="2" fill="#414559"><title>2026-06-23</title></rect>
  <rect x="440" y="82" width="13" height="13" rx="2" ry="2" fill="#414559"><title>2026-06-24</title></rect>
  <rect x="440" y="98" width="13" height="13" rx="2" ry="2" fill="#414559"><title>2026-06-25</title></rect>
  <rect x="440" y="114" width="13" height="13" rx="2" ry="2" fill="#414559"><title>2026-06-26</title></rect>
  <rect x="440" y="130" width="13" height="13" rx="2" ry="2" fill="#414559"><title>2026-06-27</title></rect>
  <rect x="440" y="146" width="13" height="13" rx="2" ry="2" fill="#414559"><title>2026-06-28</title></rect>
  <rect x="456" y="50" width="13" height="13" rx="2" ry="2" fill="#414559"><title>2026-06-29</title></rect>
  <rect x="456" y="66" width="13" height="13" rx="2" ry="2" fill="#414559"><title>2026-06-30</title></rect>
  <rect x="456" y="82" width="13" height="13" rx="2" ry="2" fill="#414559"><title>2026-07-01</title></rect>
  <rect x="456" y="98" width="13" height="13" rx="2" ry="2" fill="#414559"><title>2026-07-02</title></rect>
  <rect x="456" y="114" width="13" height="13" rx="2" ry="2" fill="#414559"><title>2026-07-03</title></rect>
  <rect x="456" y="130" width="13" height="13" rx="2" ry="2" fill="#414559"><title>2026-07-04</title></rect>
  <rect x="456" y="146" width="13" height="13" rx="2" ry="2" fill="#414559"><title>2026-07-05</title></rect>
  <rect x="472" y="50" width="13" height="13" rx="2" ry="2" fill="#414559"><title>2026-07-06</title></rect>
  <rect x="472" y="66" width="13" height="13" rx="2" ry="2" fill="#414559"><title>2026-07-07</title></rect>
  <rect x="472" y="82" width="13" height="13" rx="2" ry="2" fill="#414559"><title>2026-07-08</title></rect>
  <rect x="472" y="98" width="13" height="13" rx="2" ry="2" fill="#414559"><title>2026-07-09</title></rect>
  <rect x="472" y="114" width="13" height="13" rx="2" ry="2" fill="#414559"><title>2026-07-10</title></rect>
  <rect x="472" y="130" width="13" height="13" rx="2" ry="2" fill="#414559"><title>2026-07-11</title></rect>
  <rect x="472" y="146" width="13" height="13" rx="2" ry="2" fill="#414559"><title>2026-07-12</title></rect>
  <rect x="488" y="50" width="13" height="13" rx="2" ry="2" fill="#414559"><title>2026-07-13</title></rect>
  <rect x="488" y="66" width="13" height="13" rx="2" ry="2" fill="#414559"><title>2026-07-14</title></rect>
  <rect x="488" y="82" width="13" height="13" rx="2" ry="2" fill="#414559"><title>2026-07-15</title></rect>
  <rect x="488" y="98" width="13" height="13" rx="2" ry="2" fill="#414559"><title>2026-07-16</title></rect>
  <rect x="488" y="114" width="13" height="13" rx="2" ry="2" fill="#414559"><title>2026-07-17</title></rect>
  <rect x="488" y="130" width="13" height="13" rx="2" ry="2" fill="#414559"><title>2026-07-18</title></rect>
  <rect x="488" y="146" width="13" height="13" rx="2" ry="2" fill="#414559"><title>2026-07-19</title></rect>
  <rect x="504" y="50" width="13" height="13" rx="2" ry="2" fill="#414559"><title>2026-07-20</title></rect>
  <rect x="504" y="66" width="13" height="13" rx="2" ry="2" fill="#414559"><title>2026-07-21</title></rect>
  <rect x="504" y="82" width="13" height="13" rx="2" ry="2" fill="#414559"><title>2026-07-22</title></rect>
  <rect x="504" y="98" width="13" height="13" rx="2" ry="2" fill="#414559"><title>2026-07-23</title></rect>
  <rect x="504" y="114" width="13" height="13" rx="2" ry="2" fill="#414559"><title>2026-07-24</title></rect>
  <rect x="504" y="130" width="13" height="13" rx="2" ry="2" fill="#414559"><title>2026-07-25</title></rect>
  <rect x="504" y="146" width="13" height="13" rx="2" ry="2" fill="#414559"><title>2026-07-26</title></rect>
  <rect x="520" y="50" width="13" height="13" rx="2" ry="2" fill="#414559"><title>2026-07-27</title></rect>
  <rect x="520" y="66" width="13" height="13" rx="2" ry="2" fill="#414559"><title>2026-07-28</title></rect>
  <rect x="520" y="82" width="13" height="13" rx="2" ry="2" fill="#414559"><title>2026-07-29</title></rect>
  <rect x="520" y="98" width="13" height="13" rx="2" ry="2" fill="#414559"><title>2026-07-30</title></rect>
  <rect x="520" y="114" width="13" height="13" rx="2" ry="2" fill="#414559"><title>2026-07-31</title></rect>
  <rect x="520" y="130" width="13" height="13" rx="2" ry="2" fill="#414559"><title>2026-08-01</title></rect>
  <rect x="520" y="146" width="13" height="13" rx="2" ry="2" fill="#414559"><title>2026-08-02</title></rect>
  <rect x="536" y="50" width="13" height="13" rx="2" ry="2" fill="#414559"><title>2026-08-03</title></rect>
  <rect x="536" y="66" width="13" height="13" rx="2" ry="2" fill="#414559"><title>2026-08-04</title></rect>
  <rect x="536" y="82" width="13" height="13" rx="2" ry="2" fill="#414559"><title>2026-08-05</title></rect>
  <rect x="536" y="98" width="13" height="13" rx="2" ry="2" fill="#414559"><title>2026-08-06</title></rect>
  <rect x="536" y="114" width="13" height="13" rx="2" ry="2" fill="#414559"><title>2026-08-07</title></rect>
  <rect x="536" y="130" width="13" height="13" rx="2" ry="2" fill="#414559"><title>2026-08-08</title></rect>
  <rect x="536" y="146" width="13" height="13" rx="2" ry="2" fill="#414559"><title>2026-08-09</title></rect>
  <rect x="552" y="50" width="13" height="13" rx="2" ry="2" fill="#414559"><title>2026-08-10</title></rect>
  <rect x="552" y="66" width="13" height="13" rx="2" ry="2" fill="#414559"><title>2026-08-11</title></rect>
  <rect x="552" y="82" width="13" height="13" rx="2" ry="2" fill="#414559"><title>2026-08-12</title></rect>
  <rect x="552" y="98" width="13" height="13" rx="2" ry="2" fill="#414559"><title>2026-08-13</title></rect>
  <rect x="552" y="114" width="13" height="13" rx="2" ry="2" fill="#414559"><title>2026-08-14</title></rect>
  <rect x="552" y="130" width="13" height="13" rx="2" ry="2" fill="#414559"><title>2026-08-15</title></rect>
  <rect x="552" y="146" width="13" height="13" rx="2" ry="2" fill="#414559"><title>2026-08-16</title></rect>
  <rect x="568" y="50" width="13" height="13" rx="2" ry="2" fill="#414559"><title>2026-08-17</title></rect>
  <rect x="568" y="66" width="13" height="13" rx="2" ry="2" fill="#414559"><title>2026-08-18</title></rect>
  <rect x="568" y="82" width="13" height="13" rx="2" ry="2" fill="#414559"><title>2026-08-19</title></rect>
  <rect x="568" y="98" width="13" height="13" rx="2" ry="2" fill="#414559"><title>2026-08-20</title></rect>
  <rect x="568" y="114" width="13" height="13" rx="2" ry="2" fill="#414559"><title>2026-08-21</title></rect>
  <rect x="568" y="130" width="13" height="13" rx="2" ry="2" fill="#414559"><title>2026-08-22</title></rect>
  <rect x="568" y="146" width="13" height="13" rx="2" ry="2" fill="#414559"><title>2026-08-23</title></rect>
  <rect x="584" y="50" width="13" height="13" rx="2" ry="2" fill="#414559"><title>2026-08-24</title></rect>
  <rect x="584" y="66" width="13" height="13" rx="2" ry="2" fill="#414559"><title>2026-08-25</title></rect>
  <rect x="584" y="82" width="13" height="13" rx="2" ry="2" fill="#414559"><title>2026-08-26</title></rect>
  <rect x="584" y="98" width="13" height="13" rx="2" ry="2" fill="#414559"><title>2026-08-27</title></rect>
  <rect x="584" y="114" width="13" height="13" rx="2" ry="2" fill="#414559"><title>2026-08-28</title></rect>
  <rect x="584" y="130" width="13" height="13" rx="2" ry="2" fill="#414559"><title>2026-08-29</title></rect>
  <rect x="584" y="146" width="13" height="13" rx="2" ry="2" fill="#414559"><title>2026-08-30</title></rect>
  <rect x="600" y="50" width="13" height="13" rx="2" ry="2" fill="#414559"><title>2026-08-31</title></rect>
  <rect x="600" y="66" width="13" height="13" rx="2" ry="2" fill="#414559"><title>2026-09-01</title></rect>
  <rect x="600" y="82" width="13" height="13" rx="2" ry="2" fill="#414559"><title>2026-09-02</title></rect>
  <rect x="600" y="98" width="13" height="13" rx="2" ry="2" fill="#414559"><title>2026-09-03</title></rect>
  <rect x="600" y="114" width="13" height="13" rx="2" ry="2" fill="#414559"><title>2026-09-04</title></rect>
  <rect x="600" y="130" width="13" height="13" rx="2" ry="2" fill="#414559"><title>2026-09-05</title></rect>
  <rect x="600" y="146" width="13" height="13" rx="2" ry="2" fill="#414559"><title>2026-09-06</title></rect>
  <rect x="616" y="50" width="13" height="13" rx="2" ry="2" fill="#414559"><title>2026-09-07</title></rect>
  <rect x="616" y="66" width="13" height="13" rx="2" ry="2" fill="#414559"><title>2026-09-08</title></rect>
  <rect x="616" y="82" width="13" height="13" rx="2" ry="2" fill="#414559"><title>2026-09-09</title></rect>
  <rect x="616" y="98" width="13" height="13" rx="2" ry="2" fill="#414559"><title>2026-09-10</title></rect>
  <rect x="616" y="114" width="13" height="13" rx="2" ry="2" fill="#414559"><title>2026-09-11</title></rect>
  <rect x="616" y="130" width="13" height="13" rx="2" ry="2" fill="#414559"><title>2026-09-12</title></rect>
  <rect x="616" y="146" width="13" height="13" rx="2" ry="2" fill="#414559"><title>2026-09-13</title></rect>
  <rect x="632" y="50" width="13" height="13" rx="2" ry="2" fill="#414559"><title>2026-09-14</title></rect>
  <rect x="632" y="66" width="13" height="13" rx="2" ry="2" fill="#414559"><title>2026-09-15</title></rect>
  <rect x="632" y="82" width="13" height="13" rx="2" ry="2" fill="#414559"><title>2026-09-16</title></rect>
  <rect x="632" y="98" width="13" height="13" rx="2" ry="2" fill="#414559"><title>2026-09-17</title></rect>
  <rect x="632" y="114" width="13" height="13" rx="2" ry="2" fill="#414559"><title>2026-09-18</title></rect>
  <rect x="632" y="130" width="13" height="13" rx="2" ry="2" fill="#414559"><title>2026-09-19</title></rect>
  <rect x="632" y="146" width="13" height="13" rx="2" ry="2" fill="#414559"><title>2026-09-20</title></rect>
  <rect x="648" y="50" width="13" height="13" rx="2" ry="2" fill="#414559"><title>2026-09-21</title></rect>
  <rect x="648" y="66" width="13" height="13" rx="2" ry="2" fill="#414559"><title>2026-09-22</title></rect>
  <rect x="648" y="82" width="13" height="13" rx="2" ry="2" fill="#414559"><title>2026-09-23</title></rect>
  <rect x="648" y="98" width="13" height="13" rx="2" ry="2" fill="#414559"><title>2026-09-24</title></rect>
  <rect x="648" y="114" width="13" height="13" rx="2" ry="2" fill="#414559"><title>2026-09-25</title></rect>
  <rect x="648" y="130" width="13" height="13" rx="2" ry="2" fill="#414559"><title>2026-09-26</title></rect>
  <rect x="648" y="146" width="13" height="13" rx="2" ry="2" fill="#414559"><title>2026-09-27</title></rect>
  <rect x="664" y="50" width="13" height="13" rx="2" ry="2" fill="#414559"><title>2026-09-28</title></rect>
  <rect x="664" y="66" width="13" height="13" rx="2" ry="2" fill="#414559"><title>2026-09-29</title></rect>
  <rect x="664" y="82" width="13" height="13" rx="2" ry="2" fill="#414559"><title>2026-09-30</title></rect>
  <rect x="664" y="98" width="13" height="13" rx="2" ry="2" fill="#414559"><title>2026-10-01</title></rect>
  <rect x="664" y="114" width="13" height="13" rx="2" ry="2" fill="#414559"><title>2026-10-02</title></rect>
  <rect x="664" y="130" width="13" height="13" rx="2" ry="2" fill="#414559"><title>2026-10-03</title></rect>
  <rect x="664" y="146" width="13" height="13" rx="2" ry="2" fill="#414559"><title>2026-10-04</title></rect>
  <rect x="680" y="50" width="13" height="13" rx="2" ry="2" fill="#414559"><title>2026-10-05</title></rect>
  <rect x="680" y="66" width="13" height="13" rx="2" ry="2" fill="#414559"><title>2026-10-06</title></rect>
  <rect x="680" y="82" width="13" height="13" rx="2" ry="2" fill="#414559"><title>2026-10-07</title></rect>
  <rect x="680" y="98" width="13" height="13" rx="2" ry="2" fill="#414559"><title>2026-10-08</title></rect>
  <rect x="680" y="114" width="13" height="13" rx="2" ry="2" fill="#414559"><title>2026-10-09</title></rect>
  <rect x="680" y="130" width="13" height="13" rx="2" ry="2" fill="#414559"><title>2026-10-10</title></rect>
  <rect x="680" y="146" width="13" height="13" rx="2" ry="2" fill="#414559"><title>2026-10-11</title></rect>
  <rect x="696" y="50" width="13" height="13" rx="2" ry="2" fill="#414559"><title>2026-10-12</title></rect>
  <rect x="696" y="66" width="13" height="13" rx="2" ry="2" fill="#414559"><title>2026-10-13</title></rect>
  <rect x="696" y="82" width="13" height="13" rx="2" ry="2" fill="#414559"><title>2026-10-14</title></rect>
  <rect x="696" y="98" width="13" height="13" rx="2" ry="2" fill="#414559"><title>2026-10-15</title></rect>
  <rect x="696" y="114" width="13" height="13" rx="2" ry="2" fill="#414559"><title>2026-10-16</title></rect>
  <rect x="696" y="130" width="13" height="13" rx="2" ry="2" fill="#414559"><title>2026-10-17</title></rect>
  <rect x="696" y="146" width="13" height="13" rx="2" ry="2" fill="#414559"><title>2026-10-18</title></rect>
  <rect x="712" y="50" width="13" height="13" rx="2" ry="2" fill="#414559"><title>2026-10-19</title></rect>
  <rect x="712" y="66" width="13" height="13" rx="2" ry="2" fill="#414559"><title>2026-10-20</title></rect>
  <rect x="712" y="82" width="13" height="13" rx="2" ry="2" fill="#414559"><title>2026-10-21</title></rect>
  <rect x="712" y="98" width="13" height="13" rx="2" ry="2" fill="#414559"><title>2026-10-22</title></rect>
  <rect x="712" y="114" width="13" height="13" rx="2" ry="2" fill="#414559"><title>2026-10-23</title></rect>
  <rect x="712" y="130" width="13" height="13" rx="2" ry="2" fill="#414559"><title>2026-10-24</title></rect>
  <rect x="712" y="146" width="13" height="13" rx="2" ry="2" fill="#414559"><title>2026-10-25</title></rect>
  <rect x="728" y="50" width="13" height="13" rx="2" ry="2" fill="#414559"><title>2026-10-26</title></rect>
  <rect x="728" y="66" width="13" height="13" rx="2" ry="2" fill="#414559"><title>2026-10-27</title></rect>
  <rect x="728" y="82" width="13" height="13" rx="2" ry="2" fill="#414559"><title>2026-10-28</title></rect>
  <rect x="728" y="98" width="13" height="13" rx="2" ry="2" fill="#414559"><title>2026-10-29</title></rect>
  <rect x="728" y="114" width="13" height="13" rx="2" ry="2" fill="#414559"><title>2026-10-30</title></rect>
  <rect x="728" y="130" width="13" height="13" rx="2" ry="2" fill="#414559"><title>2026-10-31</title></rect>
  <rect x="728" y="146" width="13" height="13" rx="2" ry="2" fill="#414559"><title>2026-11-01</title></rect>
  <rect x="744" y="50" width="13" height="13" rx="2" ry="2" fill="#414559"><title>2026-11-02</title></rect>
  <rect x="744" y="66" width="13" height="13" rx="2" ry="2" fill="#414559"><title>2026-11-03</title></rect>
  <rect x="744" y="82" width="13" height="13" rx="2" ry="2" fill="#414559"><title>2026-11-04</title></rect>
  <rect x="744" y="98" width="13" height="13" rx="2" ry="2" fill="#414559"><title>2026-11-05</title></rect>
  <rect x="744" y="114" width="13" height="13" rx="2" ry="2" fill="#414559"><title>2026-11-06</title></rect>
  <rect x="744" y="130" width="13" height="13" rx="2" ry="2" fill="#414559"><title>2026-11-07</title></rect>
  <rect x="744" y="146" width="13" height="13" rx="2" ry="2" fill="#414559"><title>2026-11-08</title></rect>
  <rect x="760" y="50" width="13" height="13" rx="2" ry="2" fill="#414559"><title>2026-11-09</title></rect>
  <rect x="760" y="66" width="13" height="13" rx="2" ry="2" fill="#414559"><title>2026-11-10</title></rect>
  <rect x="760" y="82" width="13" height="13" rx="2" ry="2" fill="#414559"><title>2026-11-11</title></rect>
  <rect x="760" y="98" width="13" height="13" rx="2" ry="2" fill="#414559"><title>2026-11-12</title></rect>
  <rect x="760" y="114" width="13" height="13" rx="2" ry="2" fill="#414559"><title>2026-11-13</title></rect>
  <rect x="760" y="130" width="13" height="13" rx="2" ry="2" fill="#414559"><title>2026-11-14</title></rect>
  <rect x="760" y="146" width="13" height="13" rx="2" ry="2" fill="#414559"><title>2026-11-15</title></rect>
  <rect x="776" y="50" width="13" height="13" rx="2" ry="2" fill="#414559"><title>2026-11-16</title></rect>
  <rect x="776" y="66" width="13" height="13" rx="2" ry="2" fill="#414559"><title>2026-11-17</title></rect>
  <rect x="776" y="82" width="13" height="13" rx="2" ry="2" fill="#414559"><title>2026-11-18</title></rect>
  <rect x="776" y="98" width="13" height="13" rx="2" ry="2" fill="#414559"><title>2026-11-19</title></rect>
  <rect x="776" y="114" width="13" height="13" rx="2" ry="2" fill="#414559"><title>2026-11-20</title></rect>
  <rect x="776" y="130" width="13" height="13" rx="2" ry="2" fill="#414559"><title>2026-11-21</title></rect>
  <rect x="776" y="146" width="13" height="13" rx="2" ry="2" fill="#414559"><title>2026-11-22</title></rect>
  <rect x="792" y="50" width="13" height="13" rx="2" ry="2" fill="#414559"><title>2026-11-23</title></rect>
  <rect x="792" y="66" width="13" height="13" rx="2" ry="2" fill="#414559"><title>2026-11-24</title></rect>
  <rect x="792" y="82" width="13" height="13" rx="2" ry="2" fill="#414559"><title>2026-11-25</title></rect>
  <rect x="792" y="98" width="13" height="13" rx="2" ry="2" fill="#414559"><title>2026-11-26</title></rect>
  <rect x="792" y="114" width="13" height="13" rx="2" ry="2" fill="#414559"><title>2026-11-27</title></rect>
  <rect x="792" y="130" width="13" height="13" rx="2" ry="2" fill="#414559"><title>2026-11-28</title></rect>
  <rect x="792" y="146" width="13" height="13" rx="2" ry="2" fill="#414559"><title>2026-11-29</title></rect>
  <rect x="808" y="50" width="13" height="13" rx="2" ry="2" fill="#414559"><title>2026-11-30</title></rect>
  <rect x="808" y="66" width="13" height="13" rx="2" ry="2" fill="#414559"><title>2026-12-01</title></rect>
  <rect x="808" y="82" width="13" height="13" rx="2" ry="2" fill="#414559"><title>2026-12-02</title></rect>
  <rect x="808" y="98" width="13" height="13" rx="2" ry="2" fill="#414559"><title>2026-12-03</title></rect>
  <rect x="808" y="114" width="13" height="13" rx="2" ry="2" fill="#414559"><title>2026-12-04</title></rect>
  <rect x="808" y="130" width="13" height="13" rx="2" ry="2" fill="#414559"><title>2026-12-05</title></rect>
  <rect x="808" y="146" width="13" height="13" rx="2" ry="2" fill="#414559"><title>2026-12-06</title></rect>
  <rect x="824" y="50" width="13" height="13" rx="2" ry="2" fill="#414559"><title>2026-12-07</title></rect>
  <rect x="824" y="66" width="13" height="13" rx="2" ry="2" fill="#414559"><title>2026-12-08</title></rect>
  <rect x="824" y="82" width="13" height="13" rx="2" ry="2" fill="#414559"><title>2026-12-09</title></rect>
  <rect x="824" y="98" width="13" height="13" rx="2" ry="2" fill="#414559"><title>2026-12-10</title></rect>
  <rect x="824" y="114" width="13" height="13" rx="2" ry="2" fill="#414559"><title>2026-12-11</title></rect>
  <rect x="824" y="130" width="13" height="13" rx="2" ry="2" fill="#414559"><title>2026-12-12</title></rect>
  <rect x="824" y="146" width="13" height="13" rx="2" ry="2" fill="#414559"><title>2026-12-13</title></rect>
  <rect x="840" y="50" width="13" height="13" rx="2" ry="2" fill="#414559"><title>2026-12-14</title></rect>
  <rect x="840" y="66" width="13" height="13" rx="2" ry="2" fill="#414559"><title>2026-12-15</title></rect>
  <rect x="840" y="82" width="13" height="13" rx="2" ry="2" fill="#414559"><title>2026-12-16</title></rect>
  <rect x="840" y="98" width="13" height="13" rx="2" ry="2" fill="#414559"><title>2026-12-17</title></rect>
  <rect x="840" y="114" width="13" height="13" rx="2" ry="2" fill="#414559"><title>2026-12-18</title></rect>
  <rect x="840" y="130" width="13" height="13" rx="2" ry="2" fill="#414559"><title>2026-12-19</title></rect>
  <rect x="840" y="146" width="13" height="13" rx="2" ry="2" fill="#414559"><title>2026-12-20</title></rect>
  <rect x="856" y="50" width="13" height="13" rx="2" ry="2" fill="#414559"><title>2026-12-21</title></rect>
  <rect x="856" y="66" width="13" height="13" rx="2" ry="2" fill="#414559"><title>2026-12-22</title></rect>
  <rect x="856" y="82" width="13" height="13" rx="2" ry="2" fill="#414559"><title>2026-12-23</title></rect>
  <rect x="856" y="98" width="13" height="13" rx="2" ry="2" fill="#414559"><title>2026-12-24</title></rect>
  <rect x="856" y="114" width="13" height="13" rx="2" ry="2" fill="#414559"><title>2026-12-25</title></rect>
  <rect x="856" y="130" width="13" height="13" rx="2" ry="2" fill="#414559"><title>2026-12-26</title></rect>
  <rect x="856" y="146" width="13" height="13" rx="2" ry="2" fill="#414559"><title>2026-12-27</title></rect>
  <rect x="872" y="50" width="13" height="13" rx="2" ry="2" fill="#414559"><title>2026-12-28</title></rect>
  <rect x="872" y="66" width="13" height="13" rx="2" ry="2" fill="#414559"><title>2026-12-29</title></rect>
  <rect x="872" y="82" width="13" height="13" rx="2" ry="2" fill="#414559"><title>2026-12-30</title></rect>
  <rect x="872" y="98" width="13" height="13" rx="2" ry="2" fill="#414559"><title>2026-12-31</title></rect>
</svg>